<svg width="120" height="30" viewBox="0 0 120 30" fill="none" xmlns="http://www.w3.org/2000/svg">
<rect opacity="0.98" width="120" height="30" rx="15" fill="#F6EBFF"/>
<path d="M45.685 12.8082C45.6992 12.4531 45.5955 12.179 45.3739 11.9858C45.1552 11.7926 44.8242 11.696 44.381 11.696C44.0799 11.696 43.8185 11.7386 43.5969 11.8239C43.3754 11.9062 43.1978 12.0213 43.0643 12.169C42.9336 12.3139 42.8526 12.4815 42.8214 12.6719C42.7901 12.8281 42.8001 12.9645 42.8512 13.081C42.9052 13.1974 42.989 13.2983 43.1026 13.3835C43.2191 13.4659 43.3569 13.5384 43.516 13.6009C43.6751 13.6605 43.8441 13.7116 44.0231 13.7543L44.7731 13.9418C45.1396 14.027 45.4691 14.1406 45.7617 14.2827C46.0572 14.4247 46.3043 14.5994 46.5032 14.8068C46.7049 15.0142 46.8469 15.2585 46.9293 15.5398C47.0117 15.821 47.0231 16.1435 46.9634 16.5071C46.8725 17.0412 46.6609 17.5043 46.3285 17.8963C45.9961 18.2855 45.56 18.5881 45.0202 18.804C44.4805 19.017 43.8555 19.1236 43.1452 19.1236C42.4407 19.1236 41.8455 19.0156 41.3597 18.7997C40.8739 18.5838 40.5202 18.2642 40.2987 17.8409C40.0799 17.4148 40.0146 16.8878 40.1026 16.2599H41.8881C41.8569 16.5526 41.8995 16.7969 42.016 16.9929C42.1353 17.1861 42.3129 17.3324 42.5487 17.4318C42.7844 17.5284 43.0614 17.5767 43.3796 17.5767C43.695 17.5767 43.9748 17.5312 44.2191 17.4403C44.4663 17.3494 44.6665 17.223 44.82 17.0611C44.9734 16.8991 45.0671 16.7131 45.1012 16.5028C45.1353 16.3068 45.1055 16.142 45.0117 16.0085C44.918 15.875 44.7674 15.7614 44.56 15.6676C44.3555 15.571 44.1012 15.4858 43.7972 15.4119L42.8853 15.1733C42.1808 14.9943 41.6481 14.7145 41.2873 14.3338C40.9265 13.9531 40.7972 13.4403 40.8995 12.7955C40.9904 12.267 41.2106 11.8054 41.56 11.4105C41.9123 11.0128 42.3555 10.7045 42.8896 10.4858C43.4265 10.2642 44.0131 10.1534 44.6495 10.1534C45.2972 10.1534 45.8441 10.2656 46.2901 10.4901C46.7362 10.7116 47.0614 11.0213 47.266 11.419C47.4705 11.8168 47.533 12.2798 47.4535 12.8082H45.685ZM49.0483 19L48.358 12.4545H50.1946L50.4759 16.8523H50.5355L52.3253 12.4545H54.1278L54.4688 16.8267H54.5241L56.2543 12.4545H58.0866L55.2188 19H53.2969L52.8537 14.8835H52.7727L50.9659 19H49.0483ZM59.8136 19.1236C59.3988 19.1236 59.0394 19.0511 58.7354 18.9062C58.4343 18.7585 58.2127 18.5398 58.0707 18.25C57.9286 17.9602 57.8931 17.6009 57.9641 17.1719C58.0266 16.8082 58.1445 16.5043 58.3178 16.2599C58.494 16.0128 58.7085 15.8139 58.9613 15.6634C59.2141 15.5128 59.494 15.3977 59.8008 15.3182C60.1104 15.2386 60.43 15.1847 60.7596 15.1562C61.1403 15.1165 61.4499 15.0781 61.6886 15.0412C61.93 15.0043 62.1104 14.9517 62.2298 14.8835C62.3491 14.8125 62.4215 14.7074 62.4471 14.5682V14.5426C62.4897 14.2756 62.44 14.0682 62.2979 13.9205C62.1587 13.7699 61.9357 13.6946 61.6289 13.6946C61.305 13.6946 61.0295 13.7656 60.8022 13.9077C60.5778 14.0497 60.4173 14.2301 60.3207 14.4489L58.6673 14.3125C58.815 13.9148 59.038 13.571 59.3363 13.2812C59.6374 12.9886 59.9996 12.7642 60.4229 12.608C60.8462 12.4489 61.3207 12.3693 61.8462 12.3693C62.2099 12.3693 62.5494 12.4119 62.8647 12.4972C63.1829 12.5824 63.457 12.7145 63.6871 12.8935C63.9201 13.0724 64.0877 13.3026 64.19 13.5838C64.2951 13.8622 64.3164 14.196 64.2539 14.5852L63.5167 19H61.7951L61.9485 18.0923H61.8974C61.7582 18.2969 61.5877 18.4773 61.386 18.6335C61.1843 18.7869 60.9528 18.9077 60.6914 18.9957C60.43 19.081 60.1374 19.1236 59.8136 19.1236ZM60.5423 17.8707C60.8065 17.8707 61.0494 17.8182 61.271 17.7131C61.4954 17.6051 61.68 17.4602 61.8249 17.2784C61.9727 17.0966 62.0664 16.8906 62.1062 16.6605L62.217 15.9659C62.1602 16.0028 62.0778 16.0355 61.9698 16.0639C61.8647 16.0923 61.7496 16.1193 61.6246 16.1449C61.5025 16.1676 61.3789 16.1889 61.2539 16.2088C61.1289 16.2259 61.0167 16.2429 60.9173 16.2599C60.6985 16.2912 60.5025 16.3409 60.3292 16.4091C60.1559 16.4773 60.0153 16.5696 59.9073 16.6861C59.7994 16.7997 59.7326 16.9418 59.707 17.1122C59.6673 17.3594 59.7255 17.5483 59.8817 17.679C60.0408 17.8068 60.261 17.8707 60.5423 17.8707ZM64.5288 21.4545L66.0373 12.4545H67.8271L67.6438 13.554H67.7248C67.8327 13.3778 67.9762 13.1989 68.1552 13.017C68.337 12.8324 68.5629 12.679 68.8327 12.5568C69.1026 12.4318 69.4194 12.3693 69.783 12.3693C70.2631 12.3693 70.6822 12.4943 71.0401 12.7443C71.3981 12.9915 71.6566 13.3651 71.8157 13.8651C71.9776 14.3622 71.9961 14.9858 71.8711 15.7358C71.7518 16.4659 71.5316 17.0824 71.2106 17.5852C70.8924 18.0852 70.5103 18.4645 70.0643 18.723C69.6211 18.9787 69.1509 19.1065 68.6538 19.1065C68.3015 19.1065 68.0117 19.0483 67.7844 18.9318C67.56 18.8153 67.3853 18.669 67.2603 18.4929C67.1353 18.3139 67.0472 18.1335 66.9961 17.9517H66.9279L66.3484 21.4545H64.5288ZM67.2688 15.7273C67.2063 16.1165 67.2035 16.456 67.2603 16.7457C67.32 17.0355 67.4393 17.2614 67.6183 17.4233C67.7972 17.5824 68.033 17.6619 68.3256 17.6619C68.6211 17.6619 68.8839 17.581 69.114 17.419C69.3441 17.2543 69.5359 17.027 69.6893 16.7372C69.8427 16.4446 69.9521 16.108 70.0174 15.7273C70.0771 15.3494 70.0785 15.017 70.0217 14.7301C69.9648 14.4432 69.8484 14.2187 69.6722 14.0568C69.4961 13.8949 69.2575 13.8139 68.9563 13.8139C68.6637 13.8139 68.4009 13.892 68.168 14.0483C67.9379 14.2045 67.7461 14.4261 67.5927 14.7131C67.4393 15 67.3313 15.3381 67.2688 15.7273ZM72.1342 21.4545L73.6428 12.4545H75.4325L75.2493 13.554H75.3303C75.4382 13.3778 75.5817 13.1989 75.7607 13.017C75.9425 12.8324 76.1683 12.679 76.4382 12.5568C76.7081 12.4318 77.0249 12.3693 77.3885 12.3693C77.8686 12.3693 78.2876 12.4943 78.6456 12.7443C79.0036 12.9915 79.2621 13.3651 79.4212 13.8651C79.5831 14.3622 79.6016 14.9858 79.4766 15.7358C79.3572 16.4659 79.1371 17.0824 78.8161 17.5852C78.4979 18.0852 78.1158 18.4645 77.6697 18.723C77.2266 18.9787 76.7564 19.1065 76.2592 19.1065C75.907 19.1065 75.6172 19.0483 75.3899 18.9318C75.1655 18.8153 74.9908 18.669 74.8658 18.4929C74.7408 18.3139 74.6527 18.1335 74.6016 17.9517H74.5334L73.9538 21.4545H72.1342ZM74.8743 15.7273C74.8118 16.1165 74.8089 16.456 74.8658 16.7457C74.9254 17.0355 75.0447 17.2614 75.2237 17.4233C75.4027 17.5824 75.6385 17.6619 75.9311 17.6619C76.2266 17.6619 76.4893 17.581 76.7195 17.419C76.9496 17.2543 77.1413 17.027 77.2947 16.7372C77.4482 16.4446 77.5575 16.108 77.6229 15.7273C77.6825 15.3494 77.6839 15.017 77.6271 14.7301C77.5703 14.4432 77.4538 14.2187 77.2777 14.0568C77.1016 13.8949 76.8629 13.8139 76.5618 13.8139C76.2692 13.8139 76.0064 13.892 75.7734 14.0483C75.5433 14.2045 75.3516 14.4261 75.1982 14.7131C75.0447 15 74.9368 15.3381 74.8743 15.7273ZM81.9854 19.1236C81.5707 19.1236 81.2113 19.0511 80.9073 18.9062C80.6062 18.7585 80.3846 18.5398 80.2425 18.25C80.1005 17.9602 80.065 17.6009 80.136 17.1719C80.1985 16.8082 80.3164 16.5043 80.4897 16.2599C80.6658 16.0128 80.8803 15.8139 81.1332 15.6634C81.386 15.5128 81.6658 15.3977 81.9727 15.3182C82.2823 15.2386 82.6019 15.1847 82.9315 15.1562C83.3121 15.1165 83.6218 15.0781 83.8604 15.0412C84.1019 15.0043 84.2823 14.9517 84.4016 14.8835C84.521 14.8125 84.5934 14.7074 84.619 14.5682V14.5426C84.6616 14.2756 84.6119 14.0682 84.4698 13.9205C84.3306 13.7699 84.1076 13.6946 83.8008 13.6946C83.4769 13.6946 83.2013 13.7656 82.9741 13.9077C82.7496 14.0497 82.5891 14.2301 82.4925 14.4489L80.8391 14.3125C80.9869 13.9148 81.2099 13.571 81.5082 13.2812C81.8093 12.9886 82.1715 12.7642 82.5948 12.608C83.0181 12.4489 83.4925 12.3693 84.0181 12.3693C84.3817 12.3693 84.7212 12.4119 85.0366 12.4972C85.3548 12.5824 85.6289 12.7145 85.859 12.8935C86.092 13.0724 86.2596 13.3026 86.3619 13.5838C86.467 13.8622 86.4883 14.196 86.4258 14.5852L85.6886 19H83.967L84.1204 18.0923H84.0692C83.93 18.2969 83.7596 18.4773 83.5579 18.6335C83.3562 18.7869 83.1246 18.9077 82.8633 18.9957C82.6019 19.081 82.3093 19.1236 81.9854 19.1236ZM82.7141 17.8707C82.9783 17.8707 83.2212 17.8182 83.4428 17.7131C83.6673 17.6051 83.8519 17.4602 83.9968 17.2784C84.1445 17.0966 84.2383 16.8906 84.2781 16.6605L84.3888 15.9659C84.332 16.0028 84.2496 16.0355 84.1417 16.0639C84.0366 16.0923 83.9215 16.1193 83.7965 16.1449C83.6744 16.1676 83.5508 16.1889 83.4258 16.2088C83.3008 16.2259 83.1886 16.2429 83.0891 16.2599C82.8704 16.2912 82.6744 16.3409 82.5011 16.4091C82.3278 16.4773 82.1871 16.5696 82.0792 16.6861C81.9712 16.7997 81.9045 16.9418 81.8789 17.1122C81.8391 17.3594 81.8974 17.5483 82.0536 17.679C82.2127 17.8068 82.4329 17.8707 82.7141 17.8707ZM87.131 19L88.5799 10.2727H90.3952L89.8583 13.554H89.9094C90.0174 13.3778 90.1623 13.1989 90.3441 13.017C90.5288 12.8324 90.7546 12.679 91.0217 12.5568C91.2887 12.4318 91.6055 12.3693 91.9719 12.3693C92.4492 12.3693 92.8683 12.4943 93.229 12.7443C93.5898 12.9915 93.8498 13.3651 94.0089 13.8651C94.168 14.3622 94.185 14.9858 94.06 15.7358C93.9407 16.4659 93.7205 17.0824 93.3995 17.5852C93.0813 18.0852 92.6992 18.4645 92.2532 18.723C91.81 18.9787 91.3398 19.1065 90.8427 19.1065C90.4904 19.1065 90.2006 19.0483 89.9734 18.9318C89.7489 18.8153 89.5742 18.669 89.4492 18.4929C89.3242 18.3139 89.2347 18.1335 89.1808 17.9517H89.0913L88.9208 19H87.131ZM89.4535 15.7273C89.391 16.1165 89.3896 16.456 89.4492 16.7457C89.5117 17.0355 89.631 17.2614 89.8072 17.4233C89.9862 17.5824 90.2205 17.6619 90.5103 17.6619C90.8086 17.6619 91.0728 17.581 91.3029 17.419C91.5359 17.2543 91.729 17.027 91.8825 16.7372C92.0359 16.4446 92.1438 16.108 92.2063 15.7273C92.266 15.3494 92.2674 15.017 92.2106 14.7301C92.1538 14.4432 92.0373 14.2187 91.8612 14.0568C91.685 13.8949 91.4464 13.8139 91.1452 13.8139C90.8526 13.8139 90.5898 13.892 90.3569 14.0483C90.1268 14.2045 89.9336 14.4261 89.7773 14.7131C89.6239 15 89.516 15.3381 89.4535 15.7273ZM97.9901 10.2727L96.5412 19H94.7259L96.1747 10.2727H97.9901ZM100.961 19.1278C100.291 19.1278 99.7354 18.9915 99.2951 18.7188C98.8548 18.4432 98.5451 18.054 98.3661 17.5511C98.19 17.0455 98.1602 16.4474 98.2766 15.7571C98.3903 15.0838 98.619 14.4929 98.9627 13.9844C99.3093 13.4759 99.744 13.0795 100.267 12.7955C100.789 12.5114 101.372 12.3693 102.014 12.3693C102.446 12.3693 102.836 12.4389 103.186 12.5781C103.538 12.7145 103.831 12.9219 104.064 13.2003C104.297 13.4759 104.456 13.821 104.541 14.2358C104.629 14.6506 104.627 15.1364 104.537 15.6932L104.456 16.1918H98.9329L99.1076 15.0668H102.926C102.968 14.8054 102.951 14.5739 102.875 14.3722C102.798 14.1705 102.67 14.0128 102.491 13.8991C102.312 13.7827 102.092 13.7244 101.831 13.7244C101.564 13.7244 101.314 13.7898 101.081 13.9205C100.848 14.0511 100.652 14.223 100.493 14.4361C100.336 14.6463 100.235 14.875 100.19 15.1222L99.9897 16.2386C99.9329 16.5824 99.9442 16.8679 100.024 17.0952C100.106 17.3224 100.248 17.4929 100.45 17.6065C100.652 17.7173 100.907 17.7727 101.217 17.7727C101.419 17.7727 101.608 17.7443 101.784 17.6875C101.963 17.6307 102.122 17.5469 102.261 17.4361C102.4 17.3224 102.514 17.1818 102.602 17.0142L104.26 17.125C104.106 17.5284 103.873 17.8807 103.561 18.1818C103.248 18.4801 102.872 18.7131 102.431 18.8807C101.994 19.0455 101.504 19.1278 100.961 19.1278Z" fill="#7B45AC"/>
<path d="M22.395 18.6245C21.334 19.2368 20.0959 18.1456 20.3567 16.8282L21.8998 9.03407C22.1519 7.76086 23.5941 7.39627 24.3468 8.41547L25.8267 10.4192C25.9956 10.6479 26.2165 10.8206 26.4647 10.9181L28.8486 11.8541C30.0281 12.3172 30.1713 14.1368 29.0779 14.7678L22.395 18.6245Z" fill="#7B45AC"/>
<path d="M16.8449 10.637C17.9313 10.071 19.1212 11.2151 18.8033 12.5202L16.9231 20.2414C16.616 21.5026 15.1596 21.8042 14.4519 20.7533L13.061 18.6876C12.9021 18.4517 12.6889 18.2695 12.4451 18.1614L10.1049 17.1235C8.94669 16.6099 8.88232 14.7856 10.0018 14.2023L16.8449 10.637Z" fill="#F26522"/>
</svg>
