<svg xmlns="http://www.w3.org/2000/svg" width="107" height="85" viewBox="0 0 107 85" fill="none">
  <rect y="0.931641" width="106.565" height="84.0682" rx="8" fill="#7B45AC" fill-opacity="0.05"/>
  <path d="M63.4727 33.432H62.8778C62.2829 33.432 61.8368 33.0795 61.5393 32.3744L59.7547 30.1116C59.3085 28.8779 58.2675 28.1729 57.0777 28.1729H48.8981C47.8571 28.1729 46.8161 28.8779 46.2212 30.1116L44.5853 32.3744C44.2878 33.0795 43.8417 33.432 43.2468 33.432H42.6519C39.3801 33.432 36.7031 36.6045 36.7031 40.482V51.057C36.7031 54.9346 39.3801 58.1071 42.6519 58.1071H63.4727C66.7445 58.1071 69.4215 54.9346 69.4215 51.057V40.482C69.4215 36.6045 66.7445 33.432 63.4727 33.432Z" fill="#7B45AC" fill-opacity="0.2"/>
  <rect x="51.8125" y="37.918" width="1.79006" height="12.5306" rx="0.895031" fill="#7B45AC"/>
  <rect x="58.9766" y="43.2861" width="1.79009" height="12.5304" rx="0.895043" transform="rotate(90 58.9766 43.2861)" fill="#7B45AC"/>
</svg>