<svg xmlns="http://www.w3.org/2000/svg" width="184" height="59" viewBox="0 0 184 59" fill="none">
  <path d="M29.5891 1H154.966C170.778 1 183.555 13.7772 183.555 29.5C183.555 45.2626 170.738 58 154.966 58H29.5891C13.7772 58 1 45.2228 1 29.5C1 13.7374 13.8172 1 29.5891 1Z" fill="white"/>
  <path opacity="0.2" d="M29.5848 1.51562H154.961C170.454 1.51562 182.992 14.0142 182.992 29.4584C182.992 44.9025 170.454 57.4011 154.961 57.4011H29.5848C14.0924 57.4011 1.55469 44.9025 1.55469 29.4584C1.55469 14.054 14.0924 1.51562 29.5848 1.51562Z" stroke="#2D3142" stroke-width="1.5"/>
  <path d="M47.8397 29.9008L34.224 17.2031C34.1042 17.5216 33.9844 17.84 33.9844 18.2779V41.6431C33.9844 42.0809 34.1042 42.3994 34.224 42.7178L47.8397 29.9008Z" fill="#2D3142"/>
  <path d="M49.4375 29.9029L53.9894 34.1221L58.9805 31.495C60.5777 30.6591 60.5777 29.266 58.9805 28.4301L53.8696 25.6836L49.4375 29.9029Z" fill="#2D3142"/>
  <path d="M48.6314 29.1472L52.8239 25.1269L36.8124 16.6884C36.1336 16.37 35.4548 16.2505 35.0156 16.4894L48.6314 29.1472Z" fill="#2D3142"/>
  <path d="M48.6314 30.6172L35.0156 43.3944C35.4548 43.5935 36.1336 43.5138 36.9322 43.1954L53.0235 34.7569L48.6314 30.6172Z" fill="#2D3142"/>
  <path d="M70.275 18.082C69.3567 18.082 68.5581 18.4005 67.9192 19.0373C67.2804 19.6742 66.9609 20.4703 66.9609 21.4256C66.9609 22.3809 67.2804 23.177 67.9192 23.8139C68.5581 24.4507 69.3567 24.7692 70.275 24.7692C71.5528 24.7692 72.6308 24.0925 73.1898 23.0576V21.2266H70.2351V22.1421H72.1517V22.8586C71.7125 23.5352 71.1135 23.8537 70.275 23.8537C69.5962 23.8537 69.0372 23.6149 68.598 23.177C68.1588 22.6993 67.9592 22.1421 67.9592 21.4256C67.9592 20.7489 68.1588 20.1519 68.598 19.714C68.9973 19.2762 69.5563 19.0373 70.2351 19.0373C71.0337 19.0373 71.6326 19.3956 72.1118 20.0723L72.8305 19.4354C72.2715 18.5597 71.393 18.082 70.275 18.082Z" fill="#2D3142"/>
  <path d="M74.4688 18.2031V24.6913H78.7012V23.7758H75.467V21.7059H77.8228V20.7904H75.467V19.1186H78.5814V18.2031H74.4688Z" fill="#2D3142"/>
  <path d="M79.2188 18.2031V19.1186H81.335V24.6913H82.3332V19.1186H84.4494V18.2031H79.2188Z" fill="#2D3142"/>
  <path d="M87.6016 18.2031V24.6913H88.5998V18.2031H87.6016Z" fill="#2D3142"/>
  <path d="M89.5625 18.2031V19.1186H91.6787V24.6913H92.6769V19.1186H94.7932V18.2031H89.5625Z" fill="#2D3142"/>
  <path d="M100.822 18.082C99.9035 18.082 99.105 18.4005 98.4661 19.0373C97.8272 19.6742 97.5078 20.4703 97.5078 21.4256C97.5078 22.3809 97.8272 23.177 98.4661 23.8139C99.105 24.4507 99.8636 24.7692 100.822 24.7692C101.74 24.7692 102.499 24.4507 103.138 23.8139C103.777 23.177 104.096 22.3809 104.096 21.4256C104.096 20.4703 103.777 19.6742 103.138 19.0373C102.539 18.4005 101.74 18.082 100.822 18.082ZM100.822 19.0373C101.461 19.0373 102.02 19.2762 102.419 19.714C102.858 20.1519 103.058 20.7489 103.058 21.4256C103.058 22.1421 102.858 22.6993 102.419 23.1372C101.98 23.575 101.461 23.8139 100.822 23.8139C100.183 23.8139 99.624 23.575 99.2247 23.1372C98.7855 22.6595 98.5859 22.1023 98.5859 21.4256C98.5859 20.7489 98.7855 20.1519 99.2247 19.714C99.664 19.2762 100.183 19.0373 100.822 19.0373Z" fill="#2D3142"/>
  <path d="M109.481 22.5799L105.687 18.082H105.328V24.6896H106.326V20.3111L110.16 24.809H110.519V18.2014H109.521V22.5799H109.481Z" fill="#2D3142"/>
  <path d="M72.7506 29.5078C71.1135 29.5078 69.756 30.0651 68.6379 31.2194C67.5199 32.3339 66.9609 33.7271 66.9609 35.3989C66.9609 37.0707 67.5199 38.4638 68.6379 39.5784C69.756 40.6929 71.1135 41.2501 72.7506 41.2501C74.9467 41.2501 76.9032 40.056 77.8615 38.2648V35.0804H72.7107V36.7124H76.1046V37.9464C75.346 39.1007 74.2679 39.658 72.8305 39.658C71.6326 39.658 70.6743 39.2599 69.9157 38.4638C69.157 37.6677 68.7977 36.6328 68.7977 35.3989C68.7977 34.2047 69.157 33.2096 69.8757 32.4135C70.5945 31.6175 71.5528 31.2194 72.7107 31.2194C74.0683 31.2194 75.1863 31.8165 75.9849 33.0106L77.2626 31.9359C76.2244 30.3039 74.7071 29.5078 72.7506 29.5078Z" fill="#2D3142"/>
  <path d="M82.8904 32.4102C81.6926 32.4102 80.6544 32.848 79.8159 33.6839C78.9774 34.5198 78.5781 35.5945 78.5781 36.8285C78.5781 38.0624 78.9774 39.1371 79.8159 39.973C80.6544 40.8089 81.6526 41.2467 82.8904 41.2467C84.0883 41.2467 85.0865 40.8089 85.965 39.973C86.8035 39.0973 87.2427 38.0624 87.2427 36.8285C87.2427 35.5945 86.8035 34.5198 85.965 33.6839C85.1265 32.848 84.0883 32.4102 82.8904 32.4102ZM82.9304 34.0819C83.6491 34.0819 84.248 34.3606 84.7272 34.878C85.2063 35.3955 85.4459 36.0324 85.4459 36.8285C85.4459 37.5847 85.2063 38.2614 84.7272 38.7789C84.248 39.2963 83.6491 39.5352 82.9304 39.5352C82.2117 39.5352 81.6127 39.2963 81.1336 38.7789C80.6544 38.2614 80.4148 37.5847 80.4148 36.8285C80.4148 36.0324 80.6544 35.3955 81.1336 34.878C81.5728 34.3208 82.1717 34.0819 82.9304 34.0819Z" fill="#2D3142"/>
  <path d="M92.1951 32.4102C90.9973 32.4102 89.9591 32.848 89.1206 33.6839C88.2821 34.5198 87.8828 35.5945 87.8828 36.8285C87.8828 38.0624 88.2821 39.1371 89.1206 39.973C89.9591 40.8089 90.9573 41.2467 92.1951 41.2467C93.393 41.2467 94.3912 40.8089 95.2697 39.973C96.1082 39.0973 96.5474 38.0624 96.5474 36.8285C96.5474 35.5945 96.1082 34.5198 95.2697 33.6839C94.4311 32.848 93.393 32.4102 92.1951 32.4102ZM92.2351 34.0819C92.9538 34.0819 93.5527 34.3606 94.0319 34.878C94.511 35.3955 94.7506 36.0324 94.7506 36.8285C94.7506 37.5847 94.511 38.2614 94.0319 38.7789C93.5527 39.2963 92.9538 39.5352 92.2351 39.5352C91.5163 39.5352 90.9174 39.2963 90.4383 38.7789C89.9591 38.2614 89.7195 37.5847 89.7195 36.8285C89.7195 36.0324 89.9591 35.3955 90.4383 34.878C90.8775 34.3208 91.4764 34.0819 92.2351 34.0819Z" fill="#2D3142"/>
  <path d="M104.14 33.8033C103.501 32.8878 102.543 32.4102 101.265 32.4102C100.108 32.4102 99.1892 32.8082 98.4305 33.6043C97.6719 34.4004 97.3125 35.3955 97.3125 36.6692C97.3125 37.9032 97.7118 38.9381 98.4305 39.7342C99.1892 40.5303 100.108 40.9283 101.265 40.9283C102.463 40.9283 103.342 40.5303 104.021 39.7342V40.3312C104.021 41.9234 103.062 42.7593 101.585 42.7593C100.627 42.7593 99.6683 42.3613 98.71 41.5652L97.7517 42.8389C98.8298 43.9136 100.147 44.4311 101.665 44.4311C104.14 44.4311 105.737 42.9185 105.737 40.2516V32.6888H104.14V33.8033ZM101.545 39.2963C100.826 39.2963 100.267 39.0575 99.7482 38.5799C99.269 38.0624 99.0294 37.4255 99.0294 36.6692C99.0294 35.9129 99.269 35.2761 99.7482 34.7586C100.227 34.281 100.826 34.0421 101.545 34.0421C102.903 34.0421 104.021 34.9178 104.021 36.6294C104.021 37.5051 103.781 38.142 103.302 38.6197C102.783 39.0575 102.224 39.2963 101.545 39.2963Z" fill="#2D3142"/>
  <path d="M107.414 28.1523V41.049H109.171V28.1523H107.414Z" fill="#2D3142"/>
  <path d="M118.352 36.2719C118.352 35.1574 117.993 34.2419 117.274 33.4856C116.555 32.7293 115.677 32.3711 114.599 32.3711C113.401 32.3711 112.403 32.8089 111.604 33.6448C110.806 34.4807 110.406 35.5555 110.406 36.7894C110.406 38.0631 110.806 39.0981 111.644 39.9339C112.483 40.7698 113.521 41.2077 114.798 41.2077C116.036 41.2077 117.114 40.7698 118.073 39.8543L117.234 38.6204C116.515 39.2971 115.717 39.6155 114.838 39.6155C113.441 39.6155 112.403 38.7796 112.163 37.3865H118.232C118.312 37.0282 118.352 36.6302 118.352 36.2719ZM114.519 33.9633C115.717 33.9633 116.595 34.7594 116.595 36.0331H112.163C112.443 34.7594 113.361 33.9633 114.519 33.9633Z" fill="#2D3142"/>
  <path d="M123.461 29.7031V41.0474H125.218V36.6689H127.454C128.572 36.6689 129.45 36.3505 130.169 35.7136C130.848 35.0767 131.207 34.201 131.207 33.1661C131.207 32.1312 130.848 31.2953 130.169 30.6584C129.49 30.0216 128.572 29.7031 127.454 29.7031H123.461ZM127.454 31.2953C128.692 31.2953 129.41 32.0516 129.41 33.1661C129.41 34.2806 128.692 35.0369 127.454 35.0369H125.258V31.2953H127.454Z" fill="#2D3142"/>
  <path d="M132.211 28.1523V41.049H133.968V28.1523H132.211Z" fill="#2D3142"/>
  <path d="M138.792 32.4102C137.314 32.4102 136.156 33.0072 135.358 34.2014L136.356 35.2761C137.035 34.4402 137.793 34.0023 138.632 34.0023C139.75 34.0023 140.389 34.6392 140.389 35.7935V36.3508H138.073C136.236 36.3508 135.078 37.3061 135.078 38.7789C135.078 40.2516 136.196 41.207 137.913 41.207C139.031 41.207 139.91 40.8089 140.508 40.0526V41.0079H142.146V35.9129C142.146 33.6839 140.828 32.4102 138.792 32.4102ZM138.272 39.8536C137.434 39.8536 136.835 39.4555 136.835 38.7391C136.835 38.0624 137.314 37.7041 138.272 37.7041H140.349V37.8634C140.389 39.0177 139.43 39.8536 138.272 39.8536Z" fill="#2D3142"/>
  <path d="M147.014 38.7791L144.658 32.6094H142.781L146.055 40.6897L145.736 41.4858C145.337 42.4411 144.778 42.7197 143.939 42.7197C143.819 42.7197 143.5 42.7197 142.981 42.6401V44.1527C143.42 44.2721 143.899 44.3119 144.338 44.3119C145.736 44.3119 146.654 43.5954 147.333 42.0032L151.326 32.6094H149.449L147.014 38.7791Z" fill="#2D3142"/>
</svg>