<svg xmlns="http://www.w3.org/2000/svg" id="Eng" width="149.839" height="50.192" viewBox="0 0 149.839 50.192">
    <defs>
        <style>
            .cls-2{fill-rule:evenodd}.cls-2,.cls-3{fill:#fff}
        </style>
    </defs>
    <path id="Path_524" fill-rule="evenodd" d="M150.6 11H19.151C11.306 11 10 13.716 10 20.177v31.9c0 6.455 2.687 9.119 9.142 9.119H150.6c6.46 0 9.242-2.667 9.242-9.127V20.177C159.839 13.716 157.057 11 150.6 11z" data-name="Path 524" transform="translate(-10 -11)"/>
    <g id="Group_89" data-name="Group 89" transform="translate(11.453 7.669)">
        <path id="Path_525" d="M115.2 129.955a23.1 23.1 0 0 1-2.087 3.9c-1.356 2.065-3.267 4.635-5.634 4.656-2.1.019-2.644-1.37-5.5-1.354s-3.452 1.378-5.556 1.359c-2.368-.022-4.178-2.343-5.534-4.407-3.791-5.772-4.188-12.545-1.85-16.145a8.39 8.39 0 0 1 6.748-4.057c2.509 0 4.087 1.376 6.162 1.376 2.013 0 3.24-1.379 6.141-1.379a8.188 8.188 0 0 1 6.173 3.259 7.063 7.063 0 0 0 .938 12.793" class="cls-2" data-name="Path 525" transform="translate(-87.583 -106.381)"/>
        <path id="Path_526" d="M182.515 68.164a7.043 7.043 0 0 0 1.564-5.217 7.609 7.609 0 0 0-4.912 2.642 6.538 6.538 0 0 0-1.605 5.089 6.424 6.424 0 0 0 4.954-2.514" class="cls-2" data-name="Path 526" transform="translate(-164.214 -62.947)"/>
    </g>
    <path id="Path_527" d="M409.534 177h-7.623a3.344 3.344 0 0 0 1.107 2.534 3.751 3.751 0 0 0 2.492.778 8.3 8.3 0 0 0 3.082-.558l.4 1.761a9.482 9.482 0 0 1-3.836.7 5.545 5.545 0 0 1-4.172-1.562 5.778 5.778 0 0 1-1.52-4.2 6.587 6.587 0 0 1 1.411-4.31 4.887 4.887 0 0 1 4-1.832 4.251 4.251 0 0 1 3.741 1.831 6.357 6.357 0 0 1 1.012 3.652 6.686 6.686 0 0 1-.094 1.206zm-10.834-4.193a3.978 3.978 0 0 0-.82-.064 2.42 2.42 0 0 0-2.079 1.01 3.778 3.778 0 0 0-.645 2.256v5.865h-2.51v-7.7c0-1.31-.054-2.482-.1-3.663h2.21l.094 2.362h.07a4.064 4.064 0 0 1 1.27-1.861 3.133 3.133 0 0 1 1.857-.637 4.239 4.239 0 0 1 .65.016zm-9.185 7.721a5.389 5.389 0 0 1-4.186 1.737 5.12 5.12 0 0 1-4.017-1.67 6.085 6.085 0 0 1-1.49-4.211 6.213 6.213 0 0 1 1.539-4.35 5.316 5.316 0 0 1 4.149-1.691 5.206 5.206 0 0 1 4.051 1.67 6.022 6.022 0 0 1 1.456 4.184 6.275 6.275 0 0 1-1.499 4.331zm-10.449-7.955h-2.657v5.461c0 1.41.438 2.11 1.426 2.11a4.357 4.357 0 0 0 1.1-.111l.057 1.924a5.78 5.78 0 0 1-1.983.284 3.089 3.089 0 0 1-2.378-.918 4.454 4.454 0 0 1-.877-3.08v-5.67h-1.624v-2.067h1.624v-2.025l2.657-.753v2.778h2.657zm-8.93 8.279a6.252 6.252 0 0 1-4.32 1.387 7.572 7.572 0 0 1-4.109-.987l.59-2.117a7.093 7.093 0 0 0 3.665.988 3.485 3.485 0 0 0 2.238-.647 2.116 2.116 0 0 0 .8-1.736 2.22 2.22 0 0 0-.656-1.617 6.231 6.231 0 0 0-2.187-1.223q-4.16-1.548-4.162-4.537a4 4 0 0 1 1.466-3.2 5.828 5.828 0 0 1 3.895-1.246 7.755 7.755 0 0 1 3.6.751l-.641 2.071a6.284 6.284 0 0 0-3.043-.731 3.157 3.157 0 0 0-2.1.657 1.9 1.9 0 0 0-.635 1.438 1.963 1.963 0 0 0 .729 1.557 8.345 8.345 0 0 0 2.3 1.219 7.729 7.729 0 0 1 3.014 1.931 4.038 4.038 0 0 1 .964 2.748 4.234 4.234 0 0 1-1.405 3.293zm-14.678-.089a4.675 4.675 0 0 1-3.533 1.5 3.615 3.615 0 0 1-3.27-1.626v6.106h-2.51V174.33c0-1.222-.047-2.348-.108-3.824h2.229l.147 1.919h.044a4.326 4.326 0 0 1 3.859-2.061 4.223 4.223 0 0 1 3.376 1.587 6.272 6.272 0 0 1 1.354 4.205 6.453 6.453 0 0 1-1.585 4.607zm-12.56 0a4.66 4.66 0 0 1-3.525 1.5 3.6 3.6 0 0 1-3.266-1.626v6.106H333.6V174.33c0-1.222-.058-2.348-.122-3.824h2.235l.14 1.919h.044a4.327 4.327 0 0 1 3.862-2.061 4.235 4.235 0 0 1 3.378 1.587 6.3 6.3 0 0 1 1.351 4.205 6.452 6.452 0 0 1-1.588 4.607zm-13.586 1.11l-1.481-4.576h-5.153l-1.413 4.576h-2.632l5.1-15.8h3.155l5.131 15.8zm75.372-9.8a2.507 2.507 0 0 0-2.023 1.111 3.641 3.641 0 0 0-.753 2.043h5.292a3.432 3.432 0 0 0-.492-2.021 2.289 2.289 0 0 0-2.021-1.13zm-79.442-3.785h-.042c-.16.738-.407 1.721-.755 3.04l-1.318 4.194h4.256l-1.335-4.194c-.148-.422-.413-1.561-.803-3.037zm26.251 4.068a2.628 2.628 0 0 0-1.7.621 2.942 2.942 0 0 0-1.011 1.641 3.419 3.419 0 0 0-.124.778v1.9a3.054 3.054 0 0 0 .772 2.109 2.557 2.557 0 0 0 1.988.855 2.6 2.6 0 0 0 2.241-1.105 4.864 4.864 0 0 0 .8-2.92 4.712 4.712 0 0 0-.752-2.748 2.623 2.623 0 0 0-2.207-1.128zm33.923-.158a2.539 2.539 0 0 0-2.324 1.36 5.133 5.133 0 0 0-.685 2.74 5.054 5.054 0 0 0 .685 2.7 2.552 2.552 0 0 0 2.3 1.358 2.526 2.526 0 0 0 2.276-1.386 5.034 5.034 0 0 0 .71-2.714 5.124 5.124 0 0 0-.679-2.7 2.525 2.525 0 0 0-2.279-1.356zm-46.487.158a2.632 2.632 0 0 0-1.7.621 2.922 2.922 0 0 0-1 1.641 3.419 3.419 0 0 0-.118.778v1.9a3.044 3.044 0 0 0 .765 2.109 2.551 2.551 0 0 0 1.987.855 2.6 2.6 0 0 0 2.237-1.105 4.873 4.873 0 0 0 .8-2.92 4.7 4.7 0 0 0-.75-2.748 2.617 2.617 0 0 0-2.217-1.128z" class="cls-2" data-name="Path 527" transform="translate(-273.074 -143.047)"/>
    <g id="Group_90" data-name="Group 90" transform="translate(46.662 10.504)">
        <path id="Path_528" d="M328.334 90.981l-.7 2.319h-1.542l2.623-8.183h1.906l2.659 8.183h-1.6l-.741-2.319zm2.343-1.129l-.644-2.016c-.158-.5-.291-1.056-.413-1.53h-.02c-.121.474-.243 1.044-.388 1.53l-.631 2.016z" class="cls-3" data-name="Path 528" transform="translate(-326.088 -84.68)"/>
        <path id="Path_529" d="M376.972 100.5l.959 3c.17.522.291 1 .4 1.481h.036c.109-.486.243-.947.4-1.481l.935-3h1.578l-2.258 5.913h-1.469l-2.2-5.913z" class="cls-3" data-name="Path 529" transform="translate(-368.084 -97.789)"/>
        <path id="Path_530" d="M422.114 105.638l-.1-.656h-.036a2.2 2.2 0 0 1-1.748.789 1.755 1.755 0 0 1-1.858-1.761c0-1.493 1.323-2.246 3.509-2.234v-.1c0-.389-.158-1.032-1.2-1.032a3.131 3.131 0 0 0-1.59.437l-.292-.971a4.257 4.257 0 0 1 2.137-.522 2.211 2.211 0 0 1 2.44 2.489v2.137a9.487 9.487 0 0 0 .085 1.42zm-.194-2.89c-1.056-.024-2.064.206-2.064 1.1a.784.784 0 0 0 .85.85 1.21 1.21 0 0 0 1.166-.813 1.076 1.076 0 0 0 .049-.328z" class="cls-3" data-name="Path 530" transform="translate(-404.75 -97.018)"/>
        <path id="Path_531" d="M462.954 82.156h1.505v8.62h-1.505z" class="cls-3" data-name="Path 531" transform="translate(-442.749 -82.156)"/>
        <path id="Path_532" d="M485.191 84.615a.838.838 0 1 1-.838-.814.791.791 0 0 1 .838.814zm-1.591 7.564v-5.913h1.506v5.913z" class="cls-3" data-name="Path 532" transform="translate(-460.276 -83.558)"/>
        <path id="Path_533" d="M504.818 90.776c.024-.4.049-1.056.049-1.663v-6.957h1.493v3.521h.024a2.139 2.139 0 0 1 1.894-.947c1.445 0 2.477 1.2 2.465 3 0 2.125-1.348 3.181-2.683 3.181a2.035 2.035 0 0 1-1.87-1.02h-.024l-.073.886zm1.542-2.44a1.654 1.654 0 0 0 .036.352 1.378 1.378 0 0 0 1.323 1.044c.935 0 1.505-.753 1.505-1.943 0-1.044-.5-1.894-1.493-1.894a1.4 1.4 0 0 0-1.323 1.093 1.788 1.788 0 0 0-.048.389z" class="cls-3" data-name="Path 533" transform="translate(-478.433 -82.156)"/>
        <path id="Path_534" d="M553.264 82.156h1.505v8.62h-1.505z" class="cls-3" data-name="Path 534" transform="translate(-519.727 -82.156)"/>
        <path id="Path_535" d="M573.285 103.1a1.607 1.607 0 0 0 1.821 1.53 4.445 4.445 0 0 0 1.639-.267l.219 1.032a5.567 5.567 0 0 1-2.064.364 2.8 2.8 0 0 1-3.048-2.987 2.928 2.928 0 0 1 2.89-3.181c1.918 0 2.55 1.578 2.55 2.877a3.685 3.685 0 0 1-.049.631zm2.6-1.044a1.271 1.271 0 0 0-1.226-1.445 1.461 1.461 0 0 0-1.372 1.445z" class="cls-3" data-name="Path 535" transform="translate(-535.571 -97.018)"/>
        <path id="Path_536" d="M637.316 102.627a2.929 2.929 0 0 1-3.035 3.145 2.859 2.859 0 0 1-2.963-3.047 2.919 2.919 0 0 1 3.06-3.133 2.837 2.837 0 0 1 2.938 3.035zm-4.456.061c0 1.141.559 2 1.469 2 .85 0 1.445-.838 1.445-2.028 0-.923-.413-1.979-1.433-1.979-1.056.004-1.481 1.019-1.481 2.007z" class="cls-3" data-name="Path 536" transform="translate(-586.259 -97.018)"/>
        <path id="Path_537" d="M679.977 101.486c0-.68-.012-1.251-.049-1.76h1.311l.073.886h.036a2.132 2.132 0 0 1 1.882-1.02c1.032 0 2.1.668 2.1 2.538v3.509h-1.493V102.3c0-.85-.316-1.493-1.129-1.493a1.253 1.253 0 0 0-1.166.874 1.523 1.523 0 0 0-.061.486v3.472h-1.506z" class="cls-3" data-name="Path 537" transform="translate(-627.693 -97.018)"/>
        <path id="Path_538" d="M742.606 89.065v1.688h1.42v1.117h-1.42v2.61c0 .716.194 1.093.765 1.093a2.212 2.212 0 0 0 .583-.073l.024 1.141a3.284 3.284 0 0 1-1.081.146 1.729 1.729 0 0 1-1.287-.486 2.356 2.356 0 0 1-.461-1.651v-2.78h-.85v-1.117h.85v-1.336z" class="cls-3" data-name="Path 538" transform="translate(-679.151 -88.045)"/>
        <path id="Path_539" d="M773.2 82.156h1.5v3.521h.024a2 2 0 0 1 .741-.68 2.025 2.025 0 0 1 1.02-.267c1.008 0 2.064.668 2.064 2.562v3.485h-1.489v-3.315c0-.862-.316-1.506-1.141-1.506a1.218 1.218 0 0 0-1.153.838 1.258 1.258 0 0 0-.061.449v3.533H773.2z" class="cls-3" data-name="Path 539" transform="translate(-707.195 -82.156)"/>
        <path id="Path_540" d="M819.13 103.1a1.606 1.606 0 0 0 1.821 1.53 4.446 4.446 0 0 0 1.639-.267l.218 1.032a5.566 5.566 0 0 1-2.064.364 2.8 2.8 0 0 1-3.047-2.987 2.928 2.928 0 0 1 2.89-3.181c1.918 0 2.55 1.578 2.55 2.877a3.683 3.683 0 0 1-.048.631zm2.6-1.044a1.271 1.271 0 0 0-1.226-1.445 1.461 1.461 0 0 0-1.372 1.445z" class="cls-3" data-name="Path 540" transform="translate(-745.124 -97.018)"/>
    </g>
</svg>
