<svg width="25" height="31" viewBox="0 0 25 31" fill="none" xmlns="http://www.w3.org/2000/svg">
<path d="M20.8808 16.314C20.8421 12.425 24.0521 10.5598 24.1956 10.4656C22.3916 7.82788 19.581 7.46595 18.5807 7.42476C16.1907 7.18202 13.9149 8.83256 12.7024 8.83256C11.4924 8.83256 9.61911 7.46033 7.63722 7.49528C5.03006 7.53397 2.62695 9.01165 1.2853 11.3455C-1.42233 16.0425 0.592638 23.0035 3.231 26.8156C4.52085 28.6789 6.05907 30.7757 8.07716 30.6989C10.0222 30.6221 10.7561 29.4409 13.1074 29.4409C15.4587 29.4409 16.1189 30.6989 18.1763 30.6596C20.268 30.6215 21.5941 28.7607 22.8733 26.8899C24.3541 24.7251 24.9638 22.6291 25 22.523C24.9544 22.5018 20.9226 20.9573 20.8808 16.314Z" fill="#2D3142"/>
<path d="M17.0141 4.90169C18.0843 3.60248 18.8094 1.79718 18.6122 0C17.0678 0.0624022 15.1982 1.02652 14.0893 2.32448C13.0959 3.47642 12.2272 5.31042 12.46 7.07516C14.1829 7.2087 15.9402 6.19841 17.0141 4.90169Z" fill="#2D3142"/>
</svg>
