<svg width="59" height="54" viewBox="0 0 59 54" fill="none" xmlns="http://www.w3.org/2000/svg">
<path d="M48.2578 9.5529H47.1984C46.1391 9.5529 45.3445 8.92517 44.8148 7.6697L41.6367 3.64004C40.8422 1.44297 38.9883 0.1875 36.8695 0.1875H22.3031C20.4492 0.1875 18.5953 1.44297 17.5359 3.64004L14.6227 7.6697C14.093 8.92517 13.2984 9.5529 12.2391 9.5529H11.1797C5.35312 9.5529 0.585938 15.2025 0.585938 22.1076V40.9397C0.585938 47.8447 5.35312 53.4943 11.1797 53.4943H48.2578C54.0844 53.4943 58.8516 47.8447 58.8516 40.9397V22.1076C58.8516 15.2025 54.0844 9.5529 48.2578 9.5529Z" fill="#7B45AC"/>
<rect x="27.5078" y="17.543" width="3.18778" height="22.3145" rx="1.59389" fill="white"/>
<rect x="40.2568" y="27.1055" width="3.18778" height="22.3145" rx="1.59389" transform="rotate(90 40.2568 27.1055)" fill="white"/>
</svg>
