<svg id="cash_icon" viewBox="0 0 15 12" fill="nones">
            <g opacity="0.5">
            <path d="M14.25 0H0.75C0.551088 0 0.360322 0.0790178 0.21967 0.21967C0.0790176 0.360322 0 0.551088 0 0.75V11.25C0 11.4489 0.0790176 11.6397 0.21967 11.7803C0.360322 11.921 0.551088 12 0.75 12H14.25C14.4489 12 14.6397 11.921 14.7803 11.7803C14.921 11.6397 15 11.4489 15 11.25V0.75C15 0.551088 14.921 0.360322 14.7803 0.21967C14.6397 0.0790178 14.4489 0 14.25 0ZM13.5 8.25C12.9033 8.25 12.331 8.48705 11.909 8.90901C11.4871 9.33097 11.25 9.90326 11.25 10.5H3.75C3.75 9.90326 3.51295 9.33097 3.09099 8.90901C2.66903 8.48705 2.09674 8.25 1.5 8.25V3.75C2.09674 3.75 2.66903 3.51295 3.09099 3.09099C3.51295 2.66903 3.75 2.09674 3.75 1.5H11.25C11.25 2.09674 11.4871 2.66903 11.909 3.09099C12.331 3.51295 12.9033 3.75 13.5 3.75V8.25Z" fill="black"/>
            <path d="M7.5 3C5.8455 3 4.5 4.3455 4.5 6C4.5 7.6545 5.8455 9 7.5 9C9.1545 9 10.5 7.6545 10.5 6C10.5 4.3455 9.1545 3 7.5 3ZM7.5 7.5C6.67275 7.5 6 6.82725 6 6C6 5.17275 6.67275 4.5 7.5 4.5C8.32725 4.5 9 5.17275 9 6C9 6.82725 8.32725 7.5 7.5 7.5Z" fill="black"/>
            </g>
            </svg>