<svg width="12" height="10" viewBox="0 0 12 10" fill="none" xmlns="http://www.w3.org/2000/svg">
<path d="M4.69675 2.65252C5.27666 2.65252 5.74676 3.14212 5.74676 3.74608V8.68263C5.74676 9.28659 5.27666 9.77619 4.69675 9.77619H1.994C1.41408 9.77619 0.94397 9.28659 0.94397 8.68263V3.74608C0.94397 3.14212 1.41408 2.65252 1.994 2.65252H4.69675ZM3.49538 7.58607H3.19537C2.94683 7.58607 2.74536 7.79585 2.74536 8.05474C2.74536 8.31357 2.94683 8.52341 3.19537 8.52341H3.49538C3.74391 8.52341 3.94539 8.31357 3.94539 8.05474C3.94539 7.79585 3.74391 7.58607 3.49538 7.58607ZM11.494 7.96212C11.7425 7.96212 11.944 8.17196 11.944 8.43079C11.944 8.66806 11.7747 8.86415 11.555 8.89514L11.494 8.89946L6.34389 8.89914V7.96181L11.494 7.96212ZM9.69427 0.776184C10.2742 0.776184 10.7443 1.26579 10.7443 1.86974V6.55662C10.7443 7.16057 10.2742 7.65017 9.69427 7.65017L6.34389 7.64999L6.34413 3.27553C6.34413 2.61667 5.85458 2.07689 5.23366 2.02918L5.1441 2.02575L2.14378 2.02534L2.14401 1.86974C2.14401 1.26579 2.61412 0.776184 3.19404 0.776184H9.69427Z" fill="#F26522"/>
</svg>
