<svg width="13" height="10" viewBox="0 0 13 10" fill="none" xmlns="http://www.w3.org/2000/svg">
<path opacity="0.5" d="M4.4634 2.14136C5.07242 2.14136 5.56612 2.66506 5.56612 3.31109V8.59148C5.56612 9.2375 5.07242 9.7612 4.4634 9.7612H1.62496C1.01593 9.7612 0.522217 9.2375 0.522217 8.59148V3.31109C0.522217 2.66506 1.01593 2.14136 1.62496 2.14136H4.4634ZM3.20171 7.41854H2.88664C2.62563 7.41854 2.41404 7.64293 2.41404 7.91986C2.41404 8.19671 2.62563 8.42117 2.88664 8.42117H3.20171C3.46273 8.42117 3.67432 8.19671 3.67432 7.91986C3.67432 7.64293 3.46273 7.41854 3.20171 7.41854ZM11.6018 7.82078C11.8629 7.82078 12.0745 8.04524 12.0745 8.32209C12.0745 8.57589 11.8966 8.78564 11.6659 8.81879L11.6018 8.82341L6.19323 8.82307V7.82045L11.6018 7.82078ZM9.7118 0.134338C10.3208 0.134338 10.8146 0.658041 10.8146 1.30406V6.31738C10.8146 6.96341 10.3208 7.48711 9.7118 7.48711L6.19323 7.48691L6.19349 2.80776C6.19349 2.10301 5.67935 1.52564 5.02726 1.4746L4.9332 1.47093L1.78227 1.4705L1.7825 1.30406C1.7825 0.658041 2.27621 0.134338 2.88525 0.134338H9.7118Z" fill="#2D3142"/>
</svg>
