<svg width="12" height="10" viewBox="0 0 12 10" fill="none" xmlns="http://www.w3.org/2000/svg">
<path d="M4.08278 2.22345C4.69181 2.22345 5.1855 2.74716 5.1855 3.39318V8.67357C5.1855 9.31959 4.69181 9.8433 4.08278 9.8433H1.24435C0.635317 9.8433 0.141602 9.31959 0.141602 8.67357V3.39318C0.141602 2.74716 0.635317 2.22345 1.24435 2.22345H4.08278ZM2.8211 7.50064H2.50603C2.24501 7.50064 2.03342 7.72502 2.03342 8.00195C2.03342 8.2788 2.24501 8.50326 2.50603 8.50326H2.8211C3.08211 8.50326 3.29371 8.2788 3.29371 8.00195C3.29371 7.72502 3.08211 7.50064 2.8211 7.50064ZM11.2212 7.90287C11.4822 7.90287 11.6938 8.12733 11.6938 8.40419C11.6938 8.65798 11.516 8.86773 11.2853 8.90088L11.2212 8.9055L5.81262 8.90516V7.90254L11.2212 7.90287ZM9.33119 0.216431C9.94022 0.216431 10.4339 0.740134 10.4339 1.38616V6.39948C10.4339 7.0455 9.94022 7.5692 9.33119 7.5692L5.81262 7.569L5.81287 2.88986C5.81287 2.18511 5.29874 1.60773 4.64664 1.5567L4.55259 1.55303L1.40165 1.55259L1.40188 1.38616C1.40188 0.740134 1.8956 0.216431 2.50463 0.216431H9.33119Z" fill="white"/>
</svg>
