<svg width="13" height="13" viewBox="0 0 13 13" fill="none" xmlns="http://www.w3.org/2000/svg">
<path opacity="0.5" d="M12.1805 0.822101C11.9199 0.561467 11.6105 0.354717 11.27 0.213659C10.9294 0.0726019 10.5645 0 10.1959 0C9.82731 0 9.46234 0.0726019 9.12183 0.213659C8.78131 0.354717 8.47192 0.561467 8.21132 0.822101L0.274052 8.75803C0.187154 8.84485 0.118222 8.94794 0.0711976 9.06142C0.0241736 9.17489 -2.00136e-05 9.29652 1.33187e-07 9.41935V12.0647C-6.54419e-05 12.1875 0.0240842 12.3092 0.0710684 12.4227C0.118053 12.5362 0.18695 12.6393 0.273822 12.7262C0.360693 12.8131 0.463835 12.882 0.577351 12.9289C0.690867 12.9759 0.81253 13.0001 0.935384 13H3.58179C3.70463 13 3.82627 12.9758 3.93975 12.9288C4.05323 12.8818 4.15633 12.8129 4.24315 12.726L12.1814 4.79003C12.7059 4.26285 13.0002 3.54945 13 2.80587C12.9998 2.06228 12.7052 1.34903 12.1805 0.822101ZM3.19454 11.1293H1.87097V9.80666L7.54999 4.12851L8.8734 5.45139L3.19454 11.1293Z" fill="white"/>
</svg>
