<svg width="48" height="48" viewBox="0 0 48 48" fill="none" xmlns="http://www.w3.org/2000/svg">
<g clip-path="url(#clip0_62_1867)">
<path d="M24 -1.61526e-06V20.57H0.25C0.978771 15.5327 3.29008 10.8576 6.85 7.22C7.65352 6.39157 8.51939 5.62599 9.44 4.93C13.6177 1.72747 18.7361 -0.0056254 24 -1.61526e-06Z" fill="#142359"/>
<path d="M40.79 6.86H24V4.76696e-06C30.2798 -0.00395544 36.3097 2.45972 40.79 6.86Z" fill="#BF2121"/>
<path d="M45.68 13.71H24V6.86H40.79C42.813 8.83554 44.4688 11.155 45.68 13.71Z" fill="white"/>
<path d="M47.75 20.57H24V13.71H45.68C46.7176 15.877 47.4158 18.1907 47.75 20.57Z" fill="#BF2121"/>
<path d="M48 24C48.0032 25.148 47.9196 26.2946 47.75 27.43H0.250051C-0.0833504 25.1555 -0.0833504 22.8445 0.250051 20.57H47.75C47.9196 21.7054 48.0032 22.852 48 24Z" fill="white"/>
<path d="M47.75 27.43C47.4158 29.8093 46.7176 32.123 45.68 34.29H2.32C1.28235 32.123 0.584189 29.8093 0.25 27.43H47.75Z" fill="#BF2121"/>
<path d="M40.79 41.14C36.3046 45.5314 30.2772 47.9908 24 47.9908C17.7227 47.9908 11.6954 45.5314 7.20996 41.14H40.79Z" fill="#BF2121"/>
<path d="M45.6803 34.29C44.4691 36.8451 42.8133 39.1645 40.7903 41.14H7.21031C5.1873 39.1645 3.53155 36.8451 2.32031 34.29H45.6803Z" fill="white"/>
<path d="M16.7098 2.78999L17.4098 4.92999H19.6598L17.8398 6.24999L18.5398 8.38999L16.7098 7.06999L14.8898 8.38999L15.5898 6.24999L13.7598 4.92999H16.0198L16.7098 2.78999Z" fill="white"/>
<path d="M16.7098 11.39L17.4098 13.53H19.6598L17.8398 14.86L18.5398 17L16.7098 15.68L14.8898 17L15.5898 14.86L13.7598 13.53H16.0198L16.7098 11.39Z" fill="white"/>
<path d="M8.28984 11.39L8.97984 13.53H11.2398L9.40984 14.86L10.1098 17L8.28984 15.68L6.45984 17L7.15984 14.86L5.33984 13.53H7.58984L8.28984 11.39Z" fill="white"/>
<path d="M9.40973 6.24999L10.1097 8.38999L8.28973 7.06999L6.46973 8.38999L6.84973 7.21999C7.65324 6.39156 8.51911 5.62598 9.43973 4.92999H11.2397L9.40973 6.24999Z" fill="white"/>
</g>
<defs>
<clipPath id="clip0_62_1867">
<rect width="48.0001" height="48" fill="white"/>
</clipPath>
</defs>
</svg>
