<svg width="32" height="33" viewBox="0 0 32 33" fill="none" xmlns="http://www.w3.org/2000/svg">
<path d="M31.2624 31.2653C31.0335 31.4989 30.7603 31.6845 30.4588 31.8111C30.1573 31.9378 29.8336 32.0031 29.5065 32.0031C29.1795 32.0031 28.8558 31.9378 28.5543 31.8111C28.2528 31.6845 27.9796 31.4989 27.7507 31.2653L23.5791 27.0937C24.9518 26.1444 26.1415 24.9547 27.0907 23.582L31.2624 27.7537C31.4959 27.9825 31.6815 28.2557 31.8082 28.5572C31.9349 28.8587 32.0002 29.1824 32.0002 29.5095C32.0002 29.8365 31.9349 30.1602 31.8082 30.4617C31.6815 30.7632 31.4959 31.0364 31.2624 31.2653Z" fill="white"/>
<path d="M13.7782 0C11.0532 0 8.38929 0.80808 6.12347 2.32205C3.85765 3.83603 2.09166 5.98789 1.04881 8.50554C0.00596983 11.0232 -0.266885 13.7935 0.264751 16.4662C0.796388 19.139 2.10864 21.594 4.03556 23.5209C5.96248 25.4479 8.41753 26.7601 11.0902 27.2917C13.763 27.8234 16.5333 27.5505 19.051 26.5077C21.5686 25.4648 23.7205 23.6988 25.2344 21.433C26.7484 19.1672 27.5565 16.5033 27.5565 13.7782C27.5565 10.124 26.1049 6.61948 23.5209 4.03555C20.937 1.45163 17.4325 0 13.7782 0ZM13.7782 7.65458C12.1542 7.65458 10.5966 8.29975 9.44816 9.44816C8.29976 10.5966 7.65458 12.1541 7.65458 13.7782C7.65458 14.1843 7.49329 14.5737 7.20619 14.8608C6.91909 15.1479 6.52969 15.3092 6.12367 15.3092C5.71765 15.3092 5.32825 15.1479 5.04115 14.8608C4.75405 14.5737 4.59275 14.1843 4.59275 13.7782C4.59519 11.3428 5.56372 9.00789 7.28581 7.2858C9.0079 5.56372 11.3428 4.59518 13.7782 4.59275C14.1843 4.59275 14.5737 4.75404 14.8608 5.04114C15.1479 5.32825 15.3092 5.71764 15.3092 6.12366C15.3092 6.52969 15.1479 6.91908 14.8608 7.20619C14.5737 7.49329 14.1843 7.65458 13.7782 7.65458Z" fill="white"/>
</svg>
