<svg xmlns="http://www.w3.org/2000/svg" id="Eng" width="149.839" height="50.192" viewBox="0 0 149.839 50.192">
    <defs>
        <style>
            .cls-6{fill:#fff}
        </style>
    </defs>
    <path id="Path_494" fill-rule="evenodd" d="M1242.6 11h-131.449c-7.845 0-9.151 2.716-9.151 9.177v31.9c0 6.455 2.687 9.119 9.142 9.119H1242.6c6.46 0 9.242-2.667 9.242-9.127V20.177c-.003-6.461-2.785-9.177-9.242-9.177z" data-name="Path 494" transform="translate(-1102 -11)"/>
    <g id="Group_83" data-name="Group 83" transform="translate(12.252 9.921)">
        <path id="Path_495" fill="#00d6ff" d="M1185.6 78.545a.883.883 0 0 0-.6.838v29.273a.883.883 0 0 0 .59.835l15.551-15.477z" data-name="Path 495" transform="translate(-1185 -78.494)"/>
        <path id="Path_496" fill="#00f076" d="M1208.975 89.362l-19.19-11.041a.875.875 0 0 0-.734-.068l15.542 15.469z" data-name="Path 496" transform="translate(-1188.454 -78.203)"/>
        <path id="Path_497" fill="#ff3a44" d="M1189.736 198.744l19.2-11.045-4.388-4.367-15.551 15.477a.875.875 0 0 0 .739-.065z" data-name="Path 497" transform="translate(-1188.404 -167.812)"/>
        <path id="Path_498" fill="#ffd000" d="M1298.722 162.523l6.243-3.592a.889.889 0 0 0 0-1.54l-6.25-3.6-4.381 4.36z" data-name="Path 498" transform="translate(-1278.194 -142.636)"/>
    </g>
    <g id="Group_84" data-name="Group 84" transform="translate(42.484 23.369)">
        <path id="Path_499" d="M1420.916 174.718a4.851 4.851 0 0 0-4.958 4.958 4.922 4.922 0 0 0 4.958 4.958 4.851 4.851 0 0 0 4.958-4.958 4.784 4.784 0 0 0-4.958-4.958zm0 7.841a3.008 3.008 0 0 1 0-6 2.793 2.793 0 0 1 2.767 3 2.862 2.862 0 0 1-2.767 3zm-10.723-7.841a4.851 4.851 0 0 0-4.958 4.958 4.922 4.922 0 0 0 4.958 4.958 4.851 4.851 0 0 0 4.958-4.958 4.784 4.784 0 0 0-4.959-4.958zm0 7.841a3.008 3.008 0 0 1 0-6 2.793 2.793 0 0 1 2.767 3 2.862 2.862 0 0 1-2.768 3zm-12.8-6.342v2.075h4.958a4.359 4.359 0 0 1-1.153 2.652 5.1 5.1 0 0 1-3.805 1.5 5.368 5.368 0 0 1-5.419-5.535 5.439 5.439 0 0 1 5.419-5.535 5.717 5.717 0 0 1 3.805 1.5l1.5-1.5a7.388 7.388 0 0 0-5.189-2.075 7.611 7.611 0 1 0 0 15.221 6.635 6.635 0 0 0 5.3-2.191 6.941 6.941 0 0 0 1.845-4.843 4.326 4.326 0 0 0-.115-1.268zm52.349 1.614a4.48 4.48 0 0 0-4.151-3.113 4.644 4.644 0 0 0-4.612 4.958 4.825 4.825 0 0 0 4.843 4.958 4.729 4.729 0 0 0 4.036-2.191l-1.614-1.153a2.81 2.81 0 0 1-2.421 1.384 2.5 2.5 0 0 1-2.422-1.5l6.573-2.767-.231-.576zm-6.688 1.614a2.8 2.8 0 0 1 2.537-2.883 2.039 2.039 0 0 1 1.845 1.038l-4.382 1.845zm-5.419 4.728h2.191V169.76h-2.191zm-3.459-8.417a3.8 3.8 0 0 0-2.652-1.153 4.954 4.954 0 0 0-4.728 4.958 4.775 4.775 0 0 0 4.728 4.843 3.311 3.311 0 0 0 2.537-1.153h.115v.692c0 1.845-1.038 2.883-2.652 2.883a2.562 2.562 0 0 1-2.421-1.73l-1.845.807a4.756 4.756 0 0 0 4.382 2.883c2.537 0 4.612-1.5 4.612-5.074v-8.763h-2.075v.807zm-2.537 6.8a3.008 3.008 0 0 1 0-6 3.021 3.021 0 0 1 0 6zm28.135-12.8h-5.189v14.413h2.191v-5.419h3a4.5 4.5 0 1 0 0-8.994zm.115 6.918h-3.113v-4.954h3.113a2.533 2.533 0 0 1 2.537 2.421 2.639 2.639 0 0 1-2.537 2.537zm13.26-2.075a3.875 3.875 0 0 0-3.805 2.191l1.96.807a2.037 2.037 0 0 1 1.96-1.038 2.167 2.167 0 0 1 2.306 1.845v.115a4.573 4.573 0 0 0-2.191-.576c-2.076 0-4.151 1.153-4.151 3.229a3.378 3.378 0 0 0 3.574 3.229 3.245 3.245 0 0 0 2.767-1.384h.115v1.153h2.076v-5.535a4.364 4.364 0 0 0-4.612-4.036zm-.231 7.956c-.692 0-1.729-.346-1.729-1.268 0-1.153 1.268-1.5 2.306-1.5a4.456 4.456 0 0 1 1.96.461 2.685 2.685 0 0 1-2.536 2.311zm12.107-7.61l-2.421 6.226h-.115l-2.537-6.226h-2.306l3.805 8.763-2.191 4.843h2.191l5.881-13.606zm-19.372 9.224h2.191V169.76h-2.191z" class="cls-6" data-name="Path 499" transform="translate(-1389.783 -169.299)"/>
    </g>
    <g id="Group_85" data-name="Group 85" transform="translate(42.666 11.799)">
        <path id="Path_500" d="M1394.862 94.394h3.593a2.42 2.42 0 0 1 .051.3 3 3 0 0 1 .021.348 4.062 4.062 0 0 1-.215 1.331 3.082 3.082 0 0 1-.676 1.116 3.388 3.388 0 0 1-1.177.809 4.034 4.034 0 0 1-1.566.287 3.965 3.965 0 0 1-1.5-.287 3.743 3.743 0 0 1-1.228-.8 3.833 3.833 0 0 1-.829-1.213 3.967 3.967 0 0 1 0-3.06 3.836 3.836 0 0 1 .829-1.213 3.748 3.748 0 0 1 1.228-.8 4.186 4.186 0 0 1 3.1.021 3.569 3.569 0 0 1 1.2.849l-.952.932a2.6 2.6 0 0 0-2.8-.6 2.387 2.387 0 0 0-.788.507 2.419 2.419 0 0 0-.537.793 2.8 2.8 0 0 0 0 2.078 2.376 2.376 0 0 0 .542.793 2.438 2.438 0 0 0 .793.507 2.816 2.816 0 0 0 1.95.01 2.315 2.315 0 0 0 .691-.435 1.656 1.656 0 0 0 .353-.466 2.65 2.65 0 0 0 .231-.629h-2.3z" class="cls-6" data-name="Path 500" transform="translate(-1391.024 -90.924)"/>
        <path id="Path_501" d="M1450.993 93.343v1.7h2.938v1.31h-2.938v1.7h3.265v1.31h-4.647v-7.33h4.647v1.31z" class="cls-6" data-name="Path 501" transform="translate(-1440.962 -91.869)"/>
        <path id="Path_502" d="M1488.4 99.362v-6.019h-2.047v-1.31h5.476v1.31h-2.047v6.018z" class="cls-6" data-name="Path 502" transform="translate(-1472.283 -91.869)"/>
        <path id="Path_503" d="M1545.358 92.033h1.382v7.329h-1.382z" class="cls-6" data-name="Path 503" transform="translate(-1522.575 -91.869)"/>
        <path id="Path_504" d="M1563.42 99.362v-6.019h-2.047v-1.31h5.476v1.31h-2.049v6.018z" class="cls-6" data-name="Path 504" transform="translate(-1536.225 -91.869)"/>
        <path id="Path_505" d="M1620.39 98.58a3.856 3.856 0 0 1-1.52-.3 3.7 3.7 0 0 1-2.016-2.032 4 4 0 0 1 0-3 3.7 3.7 0 0 1 2.016-2.032 4.039 4.039 0 0 1 3.04 0 3.7 3.7 0 0 1 2.016 2.032 4 4 0 0 1 0 3 3.7 3.7 0 0 1-2.016 2.032 3.857 3.857 0 0 1-1.52.3zm0-1.31a2.478 2.478 0 0 0 .957-.184 2.409 2.409 0 0 0 .778-.512 2.334 2.334 0 0 0 .522-.793 2.891 2.891 0 0 0 0-2.057 2.337 2.337 0 0 0-.522-.793 2.412 2.412 0 0 0-.778-.512 2.578 2.578 0 0 0-1.914 0 2.407 2.407 0 0 0-.778.512 2.328 2.328 0 0 0-.522.793 2.887 2.887 0 0 0 0 2.057 2.324 2.324 0 0 0 .522.793 2.4 2.4 0 0 0 .778.512 2.478 2.478 0 0 0 .957.184z" class="cls-6" data-name="Path 505" transform="translate(-1583.267 -90.924)"/>
        <path id="Path_506" d="M1675.98 92.033h1.607l2.948 4.913h.082l-.082-1.412v-3.5h1.372v7.329h-1.453l-3.111-5.189h-.082l.082 1.412v3.777h-1.361z" class="cls-6" data-name="Path 506" transform="translate(-1633.914 -91.869)"/>
    </g>
</svg>
