<svg width="28" height="28" viewBox="0 0 28 28" fill="none" xmlns="http://www.w3.org/2000/svg">
<path fill-rule="evenodd" clip-rule="evenodd" d="M6.03423 14.0008C6.03423 13.0915 6.18517 12.2195 6.45489 11.4019L1.73645 7.79883C0.816828 9.66586 0.298828 11.7698 0.298828 14.0008C0.298828 16.2301 0.816391 18.3325 1.73448 20.1985L6.4503 16.5884C6.1832 15.7745 6.03423 14.9058 6.03423 14.0008Z" fill="#FBBC05"/>
<path fill-rule="evenodd" clip-rule="evenodd" d="M14.3186 5.72731C16.2941 5.72731 18.0785 6.42731 19.4805 7.57269L23.5588 3.5C21.0736 1.33634 17.8873 0 14.3186 0C8.77811 0 4.01636 3.16837 1.73633 7.798L6.45455 11.401C7.54173 8.10097 10.6408 5.72731 14.3186 5.72731Z" fill="#EA4335"/>
<path fill-rule="evenodd" clip-rule="evenodd" d="M14.3186 22.2733C10.641 22.2733 7.54195 19.8997 6.45477 16.5996L1.73633 20.202C4.01636 24.8323 8.77811 28.0006 14.3186 28.0006C17.7381 28.0006 21.003 26.7864 23.4532 24.5114L18.9745 21.049C17.7108 21.845 16.1194 22.2733 14.3186 22.2733Z" fill="#34A853"/>
<path fill-rule="evenodd" clip-rule="evenodd" d="M27.7008 14.0005C27.7008 13.1731 27.5733 12.2822 27.3821 11.4551H14.3184V16.8641H21.8381C21.4621 18.7084 20.4388 20.1261 18.9742 21.0488L23.4529 24.5112C26.0267 22.1224 27.7008 18.5638 27.7008 14.0005Z" fill="#4285F4"/>
</svg>
