<svg xmlns="http://www.w3.org/2000/svg" width="184" height="59" viewBox="0 0 184 59" fill="none">
  <path d="M29.5891 1H154.966C170.778 1 183.555 13.7772 183.555 29.5C183.555 45.2626 170.738 58 154.966 58H29.5891C13.7772 58 1 45.2228 1 29.5C1 13.7772 13.8172 1 29.5891 1Z" fill="white"/>
  <path opacity="0.2" d="M29.5848 1.55469H154.961C170.454 1.55469 182.992 14.0533 182.992 29.4974C182.992 44.9416 170.454 57.4402 154.961 57.4402H29.5848C14.0924 57.4402 1.55469 44.9416 1.55469 29.4974C1.55469 14.0533 14.0924 1.55469 29.5848 1.55469Z" stroke="#2D3142" stroke-width="1.5"/>
  <path d="M67.3984 17.2031V23.6913H69.355C70.3931 23.6913 71.1917 23.3728 71.8305 22.7758C72.4694 22.1787 72.7489 21.3826 72.7489 20.4273C72.7489 19.472 72.4295 18.6759 71.8305 18.0788C71.2316 17.4818 70.3931 17.2031 69.355 17.2031H67.3984ZM69.355 18.1584C70.0737 18.1584 70.6726 18.3575 71.0719 18.7953C71.5111 19.1933 71.7108 19.7506 71.7108 20.4671C71.7108 21.1438 71.5111 21.701 71.0719 22.1389C70.6327 22.5767 70.0737 22.7758 69.355 22.7758H68.3967V18.1584H69.355Z" fill="#2D3142"/>
  <path d="M76.0693 18.7578C75.3905 18.7578 74.7916 18.9966 74.3125 19.4743C73.8333 19.9519 73.5938 20.549 73.5938 21.2655C73.5938 21.982 73.8333 22.579 74.3125 23.0567C74.7916 23.5344 75.3506 23.7732 76.0693 23.813C76.7481 23.813 77.3471 23.5742 77.8262 23.0965C78.3054 22.6188 78.5449 22.0218 78.5449 21.3053C78.5449 20.5888 78.3054 19.9918 77.8262 19.5141C77.3071 18.9966 76.7481 18.7578 76.0693 18.7578ZM76.0693 19.7131C76.4686 19.7131 76.828 19.8723 77.1075 20.1908C77.387 20.4694 77.5068 20.8675 77.5068 21.3053C77.5068 21.7432 77.3471 22.1412 77.1075 22.4198C76.828 22.6985 76.4686 22.8577 76.0693 22.8577C75.6701 22.8577 75.3107 22.6985 75.0312 22.4198C74.7517 22.1014 74.6319 21.7432 74.6319 21.3053C74.6319 20.8675 74.7517 20.4694 75.0312 20.1908C75.3107 19.8723 75.6701 19.7131 76.0693 19.7131Z" fill="#2D3142"/>
  <path d="M84.4086 21.982L82.9712 18.7578H82.6118L81.2143 22.0218L79.9765 18.8772H78.8984L80.9747 23.813H81.3341L82.8115 20.5888L84.2888 23.813H84.6482L86.6846 18.8772H85.6065L84.4086 21.982Z" fill="#2D3142"/>
  <path d="M89.8784 18.7578C89.3194 18.7578 88.8402 18.9568 88.4809 19.3549V18.8772H87.5625V23.6936H88.5607V20.8276C88.5607 20.151 88.9999 19.7131 89.6388 19.7131C90.2377 19.7131 90.637 20.151 90.637 20.8276V23.6936H91.6352V20.6684C91.6352 19.5141 90.9565 18.7578 89.8784 18.7578Z" fill="#2D3142"/>
  <path d="M93 16.3281V23.692H93.9982V16.3281H93Z" fill="#2D3142"/>
  <path d="M97.585 18.7578C96.9062 18.7578 96.3072 18.9966 95.8281 19.4743C95.3489 19.9519 95.1094 20.549 95.1094 21.2655C95.1094 21.982 95.3489 22.579 95.8281 23.0567C96.3072 23.5344 96.8662 23.7732 97.585 23.813C98.2637 23.813 98.8627 23.5742 99.3418 23.0965C99.821 22.6188 100.061 22.0218 100.061 21.3053C100.061 20.5888 99.821 19.9918 99.3418 19.5141C98.8627 18.9966 98.2637 18.7578 97.585 18.7578ZM97.6249 19.7131C98.0242 19.7131 98.3835 19.8723 98.663 20.1908C98.9425 20.4694 99.0623 20.8675 99.0623 21.3053C99.0623 21.7432 98.9026 22.1412 98.663 22.4198C98.3835 22.6985 98.0242 22.8577 97.6249 22.8577C97.2256 22.8577 96.8662 22.6985 96.5867 22.4198C96.3072 22.1014 96.1874 21.7432 96.1874 21.3053C96.1874 20.8675 96.3072 20.4694 96.5867 20.1908C96.8263 19.8723 97.1857 19.7131 97.6249 19.7131Z" fill="#2D3142"/>
  <path d="M103.016 18.7578C102.177 18.7578 101.538 19.1161 101.059 19.7927L101.618 20.3898C102.017 19.9121 102.457 19.6733 102.896 19.6733C103.535 19.6733 103.894 20.0316 103.894 20.7082V21.0267H102.576C101.538 21.0267 100.859 21.5839 100.859 22.4198C100.859 23.2557 101.498 23.813 102.496 23.813C103.135 23.813 103.614 23.614 103.974 23.1761V23.7334H104.892V20.8276C104.892 19.4743 104.134 18.7578 103.016 18.7578ZM102.696 23.0169C102.217 23.0169 101.898 22.7781 101.898 22.38C101.898 21.982 102.177 21.783 102.736 21.783H103.934V21.8626C103.894 22.5392 103.375 23.0169 102.696 23.0169Z" fill="#2D3142"/>
  <path d="M109.81 19.4734C109.45 18.9958 108.931 18.7569 108.253 18.7569C107.614 18.7569 107.055 18.9958 106.615 19.4734C106.176 19.9511 105.977 20.5481 105.977 21.2646C105.977 21.9811 106.176 22.5782 106.615 23.0558C107.055 23.5335 107.574 23.7723 108.253 23.7723C108.971 23.7723 109.53 23.4937 109.89 22.9762V23.6529H110.808V16.2891H109.81V19.4734ZM108.452 22.8568C108.053 22.8568 107.694 22.6976 107.414 22.419C107.135 22.1403 107.015 21.7423 107.015 21.2646C107.015 20.787 107.135 20.4287 107.414 20.1501C107.694 19.8715 108.013 19.7122 108.452 19.7122C108.812 19.7122 109.171 19.8317 109.45 20.1103C109.73 20.3889 109.85 20.787 109.85 21.2646C109.85 22.3393 109.211 22.8568 108.452 22.8568Z" fill="#2D3142"/>
  <path d="M117.069 18.7578C116.391 18.7578 115.792 18.9966 115.312 19.4743C114.833 19.9519 114.594 20.549 114.594 21.2655C114.594 21.982 114.833 22.579 115.312 23.0567C115.792 23.5344 116.351 23.7732 117.069 23.813C117.748 23.813 118.347 23.5742 118.826 23.0965C119.305 22.6188 119.545 22.0218 119.545 21.3053C119.545 20.5888 119.305 19.9918 118.826 19.5141C118.307 18.9966 117.748 18.7578 117.069 18.7578ZM117.069 19.7131C117.469 19.7131 117.828 19.8723 118.107 20.1908C118.387 20.4694 118.507 20.8675 118.507 21.3053C118.507 21.7432 118.347 22.1412 118.107 22.4198C117.828 22.6985 117.469 22.8577 117.069 22.8577C116.67 22.8577 116.311 22.6985 116.031 22.4198C115.752 22.1014 115.632 21.7432 115.632 21.3053C115.632 20.8675 115.752 20.4694 116.031 20.1908C116.311 19.8723 116.67 19.7131 117.069 19.7131Z" fill="#2D3142"/>
  <path d="M122.98 18.7578C122.421 18.7578 121.942 18.9568 121.582 19.3549V18.8772H120.664V23.6936H121.662V20.8276C121.662 20.151 122.101 19.7131 122.74 19.7131C123.339 19.7131 123.739 20.151 123.739 20.8276V23.6936H124.737V20.6684C124.737 19.5141 124.098 18.7578 122.98 18.7578Z" fill="#2D3142"/>
  <path d="M130.933 22.8558C130.334 22.8558 130.015 22.6567 130.015 22.0199V19.751H131.412V18.8753H130.015V17.6016H129.016V18.8753H128.258V19.751H129.016V22.0995C129.016 23.214 129.655 23.7713 130.733 23.7713C130.973 23.7713 131.252 23.7315 131.572 23.6518V22.7761C131.252 22.8558 131.053 22.8558 130.933 22.8558Z" fill="#2D3142"/>
  <path d="M134.879 18.7562C134.32 18.7562 133.881 18.9552 133.522 19.3533V16.3281H132.523V23.692H133.522V20.826C133.522 20.1494 133.961 19.7115 134.6 19.7115C135.199 19.7115 135.598 20.1494 135.598 20.826V23.692H136.596V20.6668C136.596 19.5523 135.957 18.7562 134.879 18.7562Z" fill="#2D3142"/>
  <path d="M142.262 20.9869C142.262 20.35 142.062 19.8325 141.663 19.3947C141.264 18.9568 140.745 18.7578 140.146 18.7578C139.467 18.7578 138.908 18.9966 138.429 19.5141C137.95 19.9918 137.75 20.5888 137.75 21.3053C137.75 22.0218 137.99 22.6188 138.469 23.0965C138.948 23.5742 139.547 23.813 140.266 23.813C140.984 23.813 141.583 23.5742 142.102 23.0169L141.623 22.3004C141.224 22.6985 140.745 22.8577 140.266 22.8577C139.467 22.8577 138.868 22.38 138.748 21.5839H142.222C142.222 21.3849 142.262 21.1859 142.262 20.9869ZM140.066 19.6335C140.745 19.6335 141.264 20.1112 141.264 20.8276H138.748C138.868 20.1112 139.387 19.6335 140.066 19.6335Z" fill="#2D3142"/>
  <path d="M77.9023 41.0081L72.7116 28.6289H72.0727L66.9219 41.0081H68.9183L69.7568 38.9781H75.0274L75.8659 41.0081H77.9023ZM70.4356 37.3063L72.3921 32.2511L74.3087 37.3063H70.4356Z" fill="#2D3142"/>
  <path d="M84.0571 31.7344C82.7794 31.7344 81.6614 32.2916 81.0225 33.2469V31.9732H79.2656V44.3524H81.1423V39.9341C81.8211 40.8098 82.8193 41.2078 84.0571 41.2078C85.2949 41.2078 86.333 40.77 87.1316 39.8545C87.9302 38.939 88.3295 37.8245 88.3295 36.4711C88.3295 35.1178 87.9302 34.0032 87.1316 33.0877C86.333 32.1722 85.2949 31.7344 84.0571 31.7344ZM83.7377 39.4166C83.0189 39.4166 82.3801 39.1778 81.861 38.6604C81.3419 38.1429 81.1024 37.4264 81.1024 36.4313C81.1024 34.4809 82.3002 33.4858 83.7377 33.4858C84.4963 33.4858 85.1352 33.7644 85.6542 34.3217C86.1733 34.8789 86.4129 35.5954 86.4129 36.4711C86.4129 37.3468 86.1733 38.0235 85.6542 38.5807C85.1352 39.138 84.4963 39.4166 83.7377 39.4166Z" fill="#2D3142"/>
  <path d="M94.8696 31.7344C93.5919 31.7344 92.4739 32.2916 91.835 33.2469V31.9732H90.0781V44.3524H91.9548V39.9341C92.6336 40.8098 93.6318 41.2078 94.8696 41.2078C96.1074 41.2078 97.1455 40.77 97.9441 39.8545C98.7427 38.939 99.142 37.8245 99.142 36.4711C99.142 35.1178 98.7427 34.0032 97.9441 33.0877C97.1455 32.1722 96.1074 31.7344 94.8696 31.7344ZM94.5901 39.4166C93.8714 39.4166 93.2325 39.1778 92.7134 38.6604C92.1944 38.1429 91.9548 37.4264 91.9548 36.4313C91.9548 34.4809 93.1526 33.4858 94.5901 33.4858C95.3487 33.4858 95.9876 33.7644 96.5067 34.3217C97.0258 34.8789 97.2653 35.5954 97.2653 36.4711C97.2653 37.3468 97.0258 38.0235 96.5067 38.5807C95.9477 39.138 95.3487 39.4166 94.5901 39.4166Z" fill="#2D3142"/>
  <path d="M109.245 28.6289C108.206 28.6289 107.328 28.9473 106.609 29.5444C105.891 30.1415 105.531 30.9376 105.531 31.9327C105.531 33.4851 106.529 34.4802 108.246 35.3161L109.524 35.9529C110.762 36.55 111.241 36.9082 111.241 37.7839C111.241 38.8189 110.442 39.4955 109.205 39.4955C108.007 39.4955 107.009 38.8587 106.13 37.5451L104.812 38.58C105.731 40.212 107.328 41.2071 109.245 41.2071C110.363 41.2071 111.321 40.8887 112.04 40.2518C112.798 39.6149 113.158 38.7392 113.158 37.7043C113.158 36.1122 112.239 35.1568 110.363 34.2413L109.045 33.6045C107.847 33.0074 107.408 32.689 107.408 31.8531C107.408 30.8978 108.206 30.3803 109.165 30.3803C110.163 30.3803 111.001 30.8978 111.64 31.8531L112.958 30.8182C112.279 29.5046 110.882 28.6289 109.245 28.6289Z" fill="#2D3142"/>
  <path d="M119.07 39.4582C117.952 39.4582 117.353 39.0601 117.353 37.9058V33.6069H119.949V31.9351H117.353V29.5469H115.477V31.9351H114.039V33.6069H115.477V38.0252C115.477 40.1349 116.674 41.1698 118.671 41.1698C119.11 41.1698 119.629 41.0902 120.228 40.9708V39.3388C119.709 39.4184 119.35 39.4582 119.07 39.4582Z" fill="#2D3142"/>
  <path d="M125.615 31.7344C124.338 31.7344 123.22 32.212 122.341 33.0877C121.463 34.0032 121.023 35.1178 121.023 36.4313C121.023 37.7449 121.463 38.8992 122.341 39.7749C123.22 40.6904 124.298 41.1282 125.615 41.168C126.893 41.168 127.971 40.6904 128.889 39.8147C129.808 38.8992 130.247 37.7847 130.247 36.4313C130.247 35.1178 129.768 33.9634 128.889 33.0877C128.011 32.212 126.893 31.7344 125.615 31.7344ZM125.655 33.5256C126.414 33.5256 127.053 33.8042 127.572 34.4013C128.091 34.9585 128.37 35.6352 128.37 36.5109C128.37 37.3468 128.091 38.0235 127.572 38.6206C127.053 39.1778 126.414 39.4564 125.655 39.4564C124.857 39.4564 124.218 39.1778 123.739 38.6206C123.22 38.0633 122.98 37.3468 122.98 36.5109C122.98 35.675 123.22 34.9585 123.739 34.4013C124.218 33.8042 124.857 33.5256 125.655 33.5256Z" fill="#2D3142"/>
  <path d="M136.32 31.8516C135.242 31.8516 134.404 32.2894 133.765 33.1253V31.9312H132.008V40.9668H133.884V36.1504C133.884 34.5583 134.963 33.6428 136.44 33.6428H136.999V31.9312C136.839 31.8914 136.6 31.8516 136.32 31.8516Z" fill="#2D3142"/>
  <path d="M146.185 35.8748C146.185 34.6806 145.785 33.6855 145.027 32.8894C144.268 32.0934 143.31 31.6953 142.152 31.6953C140.874 31.6953 139.796 32.173 138.957 33.0885C138.079 34.004 137.68 35.1185 137.68 36.4321C137.68 37.7854 138.119 38.8999 138.997 39.8154C139.876 40.7309 140.994 41.1688 142.351 41.1688C143.669 41.1688 144.827 40.6911 145.825 39.696L144.947 38.3825C144.148 39.0989 143.31 39.4572 142.391 39.4572C140.874 39.4572 139.796 38.5815 139.556 37.0689H146.065C146.105 36.6709 146.185 36.2728 146.185 35.8748ZM142.072 33.3671C143.35 33.3671 144.308 34.2428 144.308 35.5962H139.556C139.836 34.2428 140.834 33.3671 142.072 33.3671Z" fill="#2D3142"/>
  <path d="M57.3454 29.3471C57.3085 25.918 60.151 24.2626 60.2617 24.1837C58.6744 21.8582 56.1642 21.5429 55.3151 21.5035C53.2479 21.267 51.2176 22.7648 50.147 22.7648C49.0765 22.7648 47.4153 21.5429 45.6803 21.5823C43.4285 21.6217 41.2875 22.9224 40.1431 24.972C37.7436 29.1106 39.5155 35.22 41.8412 38.5703C42.9855 40.2257 44.3145 42.0388 46.0864 41.9994C47.8214 41.9205 48.4489 40.8957 50.5162 40.8957C52.5834 40.8957 53.174 41.9994 54.9829 41.96C56.8286 41.9205 58.0099 40.3045 59.1173 38.6491C60.4463 36.7572 60.9631 34.9046 61 34.8258C60.9262 34.7864 57.3823 33.4463 57.3454 29.3471ZM53.9493 19.3357C54.8721 18.1926 55.4997 16.616 55.3151 15C53.9862 15.0394 52.2881 15.9065 51.3283 17.0496C50.4793 18.035 49.7041 19.6904 49.9255 21.2276C51.439 21.3458 52.9895 20.4393 53.9493 19.3357Z" fill="#2D3142"/>
</svg>