<svg width="34" height="29" viewBox="0 0 34 29" fill="none" xmlns="http://www.w3.org/2000/svg">
<path d="M33.8416 2.79145C33.9466 3.15221 34 3.52658 34 3.90294V23.8034C34 25.9583 32.2874 27.7053 30.175 27.7053C29.8059 27.7053 29.4389 27.6508 29.0851 27.5435L19.7115 24.7001C18.5943 27.0326 16.2493 28.5909 13.6 28.5909C9.95826 28.5909 6.98516 25.6707 6.80833 22.0005L6.8 21.6542L6.7983 20.7859L2.73515 19.5534C1.11258 19.0614 0 17.54 0 15.8133V11.8906C0 10.1638 1.11274 8.64233 2.73544 8.15041L29.0855 0.162675C31.1103 -0.451172 33.2398 0.725764 33.8416 2.79145ZM9.3483 21.5593L9.35 21.6542C9.35 24.0486 11.2528 25.9896 13.6 25.9896C15.1048 25.9896 16.4531 25.1846 17.2105 23.9444L9.3483 21.5593Z" fill="white"/>
</svg>
