<svg width="21" height="26" viewBox="0 0 21 26" fill="none" xmlns="http://www.w3.org/2000/svg">
<path d="M1.75 11.5074C1.75 6.46779 5.8354 2.38239 10.875 2.38239C15.9146 2.38239 20 6.46779 20 11.5074V18.5353C20 20.3514 18.5278 21.8236 16.7118 21.8236H5.03823C3.22219 21.8236 1.75 20.3514 1.75 18.5353V11.5074Z" stroke="#2D3142" stroke-width="2"/>
<path d="M10.4 0.75H11.6C12.4607 0.75 13.1675 1.40902 13.2433 2.25H8.75673C8.83251 1.40902 9.53929 0.75 10.4 0.75Z" fill="#2D3142" stroke="#2D3142" stroke-width="1.5"/>
<path d="M7.5 22.625C7.5 24.489 9.01104 26 10.875 26C12.739 26 14.25 24.489 14.25 22.625V21.1786H7.5V22.625Z" fill="#2D3142"/>
</svg>
