<svg xmlns="http://www.w3.org/2000/svg" xmlns:xlink="http://www.w3.org/1999/xlink" width="226.558" height="191.199" viewBox="0 0 226.558 191.199">
    <defs>
        <linearGradient id="linear-gradient" x1=".419" x2=".343" y1=".28" y2="-.225" gradientUnits="objectBoundingBox">
            <stop offset="0" stop-color="#ecf0f5"/>
            <stop offset="1" stop-color="#ccd6e6"/>
        </linearGradient>
        <linearGradient id="linear-gradient-2" x1=".5" x2=".5" y1="0" y2="1" xlink:href="#linear-gradient"/>
        <linearGradient id="linear-gradient-3" x1=".474" x2=".5" y1="3.324" y2=".216" xlink:href="#linear-gradient"/>
        <linearGradient id="linear-gradient-4" x1="-.026" x2="1.183" y1="-.026" y2="1.183" gradientUnits="objectBoundingBox">
            <stop offset="0" stop-color="#f9de5b"/>
            <stop offset="0" stop-color="#f17c2d"/>
            <stop offset="0" stop-color="#fe9c5e"/>
            <stop offset=".012" stop-color="#fe9c5e"/>
            <stop offset=".171" stop-color="#fe9c5e"/>
            <stop offset=".371" stop-color="#fe9c5e"/>
            <stop offset="1" stop-color="#f17c2d"/>
        </linearGradient>
        <style>
            .cls-6{fill:#fff}
        </style>
    </defs>
    <g id="Group_7173" data-name="Group 7173" transform="translate(-131.668 -335.63)">
        <g id="Group_3511" data-name="Group 3511" transform="translate(177.492 335.63)">
            <g id="Group_3510" data-name="Group 3510">
                <path id="Path_2878" fill="#f0f3f6" d="M618.747 761.626v10.753h-29.3v-10.753a14.652 14.652 0 1 1 29.3 0z" data-name="Path 2878" transform="translate(-438.014 -746.972)"/>
                <path id="Path_2879" fill="url(#linear-gradient)" d="M600.559 746.972H478.475a14.654 14.654 0 0 0-14.655 14.654v1.491c-.012.262-.019.526-.019.791V917.89a14.653 14.653 0 0 1-14.65 14.654h136.754a14.653 14.653 0 0 0 14.654-14.654v-1.49c.013-.263.021-.527.021-.792V761.626a14.652 14.652 0 0 1 14.649-14.654z" data-name="Path 2879" transform="translate(-449.15 -746.972)"/>
                <path id="Path_2880" fill="url(#linear-gradient-2)" d="M579.049 918.584a14.277 14.277 0 0 1-3.116.337 14.585 14.585 0 0 1-3.12-.337z" data-name="Path 2880" transform="translate(-439.334 -733.35)"/>
            </g>
        </g>
        <path id="Path_2881" fill="url(#linear-gradient-3)" d="M583.681 920.428a14.652 14.652 0 0 1-11.534-14.317v-10.753H435.891v10.753a14.653 14.653 0 0 0 17.776 14.317z" data-name="Path 2881" transform="translate(-272.711 -399.564)"/>
        <g id="Group_3402" data-name="Group 3402" transform="rotate(-180 148.431 216.482)" style="isolation:isolate">
            <rect id="Rectangle_2173" width="60.753" height="7.215" class="cls-6" data-name="Rectangle 2173" rx="3.607" transform="translate(19.86)"/>
            <rect id="Rectangle_2175" width="79.197" height="7.215" class="cls-6" data-name="Rectangle 2175" rx="3.607" transform="translate(0 24.513)"/>
            <rect id="Rectangle_2176" width="40.742" height="7.215" class="cls-6" data-name="Rectangle 2176" rx="3.607" transform="translate(38.782 49.495)"/>
        </g>
        <g id="Group_3158" data-name="Group 3158" transform="translate(131.668 382.789)">
            <path id="Path_2735" fill="url(#linear-gradient-4)" d="M72.02 0A72.02 72.02 0 1 1 0 72.02 72.02 72.02 0 0 1 72.02 0z" data-name="Path 2735"/>
            <path id="Checkbox" fill="#fff" d="M30.387 55.789L1 26.4l6.973-6.973 22.414 21.917L70.731 1 77.7 7.973z" opacity="0.997" transform="translate(32.468 45.894)"/>
        </g>
    </g>
</svg>
