<svg xmlns="http://www.w3.org/2000/svg" width="180.035" height="53.104" viewBox="0 0 180.035 53.104">
    <defs>
        <style>
            .cls-1{fill:#fff;fill-rule:evenodd}
        </style>
    </defs>
    <g id="Component_11_3" data-name="Component 11 – 3" transform="translate(0 1.245)">
        <g id="Group_6722" data-name="Group 6722" transform="translate(-63.372 -29.026)">
            <g id="Group_3491" data-name="Group 3491" transform="translate(63.372 29.026)">
                <g id="Group_3490" data-name="Group 3490">
                    <path id="Path_2843" d="M-1226.239 1203.733a16.9 16.9 0 0 0-16.879 17.147 17.049 17.049 0 0 0 17.136 16.622h11.124a1.5 1.5 0 0 0 1.41-.943 1.5 1.5 0 0 0-.331-1.663l-8.544-8.768a3.874 3.874 0 0 1-.88-4.2 4.043 4.043 0 0 1 3.788-2.513h8.178a1.618 1.618 0 0 0 1.591-1.912 16.911 16.911 0 0 0-16.593-13.77z" class="cls-1" data-name="Path 2843" transform="translate(1243.12 -1203.733)"/>
                    <path id="Path_2844" d="M-1161.157 1301.729a16.9 16.9 0 0 0 16.879-17.147 17.048 17.048 0 0 0-17.135-16.622h-11.125a1.5 1.5 0 0 0-1.409.942 1.5 1.5 0 0 0 .331 1.663l8.549 8.773a3.87 3.87 0 0 1 .875 4.2 4.043 4.043 0 0 1-3.789 2.513h-7.776a1.948 1.948 0 0 0-1.9 2.362 16.912 16.912 0 0 0 16.5 13.316z" class="cls-1" data-name="Path 2844" transform="translate(1196.126 -1249.87)"/>
                </g>
            </g>
            <g id="Group_6786" data-name="Group 6786" transform="translate(-56.593 -89.132)">
                <text id="Company_PLATFORM:Desktop_STYLE:STYLE3_TAG:H4_" fill="#fff" data-name="Company [PLATFORM:Desktop][STYLE:STYLE3][TAG:H4]" font-family="HurmeGeometricSans4-Black, 'Hurme Geometric Sans 4'" font-size="20px" font-weight="800" transform="translate(242 152.914)">
                    <tspan x="-57.017" y="0">4</tspan><tspan y="0" font-family="HurmeGeometricSans4-Bold, 'Hurme Geometric Sans 4'" font-size="33px" font-weight="700">swapp</tspan>
                </text>
            </g>
        </g>
    </g>
</svg>
