<svg width="105" height="20" viewBox="0 0 105 20" fill="none" xmlns="http://www.w3.org/2000/svg">
<g clip-path="url(#clip0_4127_15998)">
<path d="M13.0541 1.7037L13.6931 0H5.62294L2.56699 8.13228L0.0830634 14.7513C-0.226139 15.5714 0.366499 16.455 1.22196 16.455H7.50908L8.44699 13.963L13.0541 1.7037Z" fill="#722282"/>
<path d="M20.8408 16.4692L23.2268 10.1094H20.7584L18.3672 16.4692H20.8408Z" fill="#722282"/>
<path d="M20.104 3.54688H13.8169L7.63281 20.0019H15.703L18.7589 11.8696L21.248 5.25058C21.5572 4.43047 20.9646 3.54688 20.1091 3.54688" fill="#FF671D"/>
<path d="M104.661 7.5081C105.573 5.38641 104.609 3.65625 102.517 3.65625H92.9989L87.6445 16.4869H90.0975L91.0561 14.2065L100.646 11.1272L100.796 11.0742C102.45 10.4816 103.991 9.06895 104.661 7.51339M100.817 8.75678L92.1795 11.5293L94.4212 6.18006H101.445C102.167 6.18006 102.497 6.77794 102.187 7.51339C101.95 8.06895 101.409 8.55572 100.811 8.75678" fill="#722282"/>
<path d="M27.5408 7.53985L35.9511 11.3388L36.0594 11.3917C36.4974 11.5928 36.6469 12.0795 36.4407 12.6351C36.1676 13.3705 35.3585 13.9684 34.6422 13.9684H25.2064L24.2891 16.4869H33.7043C35.7708 16.4869 38.1053 14.7568 38.8989 12.6351C39.4812 11.0795 39.0844 9.65625 37.8991 9.06366L31.1585 6.17477H41.321L42.264 3.65625H28.9529L27.5408 7.54514V7.53985Z" fill="#722282"/>
<path d="M87.7558 3.65625H78.2376L73.043 16.4869H75.496L76.4236 14.2065L85.9779 11.1272L86.1274 11.0742C87.7765 10.4816 89.3019 9.06895 89.946 7.51339C90.8273 5.3917 89.8481 3.66154 87.7558 3.66154M86.1171 8.75678L77.5161 11.5293L79.6908 6.18006H86.7149C87.4363 6.18006 87.7765 6.77794 87.4724 7.51339C87.2405 8.06895 86.7097 8.55572 86.1119 8.75678" fill="#722282"/>
<path d="M64.6948 6.17477H73.2958L72.7702 7.48694H66.4006C63.963 7.48694 61.1905 9.5081 60.2165 11.9896C59.2425 14.4764 60.4227 16.4922 62.8551 16.4922C62.9839 16.4922 63.123 16.4869 63.2725 16.4711C64.2774 16.3652 66.9623 15.7832 70.6882 12.6721L69.1576 16.4869H71.6106L76.7898 3.65625H65.6894L64.6948 6.17477ZM64.1589 13.9367C63.9476 13.9737 63.8445 13.9684 63.829 13.9684C62.7623 13.9684 62.247 13.0795 62.6798 11.9896C63.1127 10.8996 64.3289 10.0107 65.4008 10.0107H70.7449C67.0396 13.1377 64.9113 13.7991 64.1589 13.9367Z" fill="#722282"/>
<path d="M62.0244 3.65625L55.0725 12.979L54.9746 13.106C54.5829 13.6245 53.9594 13.9684 53.4286 13.9684C52.7123 13.9684 52.3567 13.3705 52.6453 12.6351L56.1135 3.65625H52.1299L45.2553 12.979L45.1574 13.106C44.7658 13.6298 44.1628 13.9684 43.6166 13.9684C42.9002 13.9684 42.5395 13.3705 42.8178 12.6351L46.2139 3.65625H43.7351L40.3596 12.6351C39.5609 14.7621 40.5967 16.4869 42.6632 16.4869C44.1783 16.4869 45.9253 15.5346 47.0487 14.1007L52.4185 6.83085L50.1871 12.6351C49.3729 14.7621 50.3881 16.4869 52.4598 16.4869C53.9748 16.4869 55.727 15.5346 56.8659 14.1007L64.6732 3.65625H62.0347H62.0244Z" fill="#722282"/>
</g>
<defs>
<clipPath id="clip0_4127_15998">
<rect width="105" height="20" fill="white"/>
</clipPath>
</defs>
</svg>
