<svg data-name="streamline-icon-police-rotating-light-1@140x140" xmlns="http://www.w3.org/2000/svg" width="15.89" height="18.818" viewBox="0 0 15.89 18.818">
    <path data-name="Path 2864" d="M65 8.557a.836.836 0 0 0 .836-.836v-2.51a.836.836 0 1 0-1.673 0V7.72a.836.836 0 0 0 .837.837z" transform="translate(-57.058 -4.375)" style="fill:#4d5a64"/>
    <path data-name="Path 2865" d="M102.215 25.322a.836.836 0 0 0 .591-.245l1.774-1.777a.836.836 0 1 0-1.18-1.18l-1.774 1.774a.836.836 0 0 0 .591 1.428z" transform="translate(-88.935 -19.366)" style="fill:#4d5a64"/>
    <path data-name="Path 2867" d="M16.6 25.077a.836.836 0 1 0 1.183-1.183l-1.772-1.774a.836.836 0 1 0-1.183 1.18z" transform="translate(-14.583 -19.366)" style="fill:#4d5a64"/>
    <path data-name="Path 2869" d="M45.348 50.655a.418.418 0 0 0 .418-.454l-.524-6.058a2.091 2.091 0 0 0-2.077-1.851h-4.544a2.091 2.091 0 0 0-2.077 1.863l-.521 6.045a.417.417 0 0 0 .416.454z" transform="translate(-32.948 -34.855)" style="fill:#f17c2d"/>
    <path data-name="Path 2870" d="M36.7 109.375h-8.359a2.091 2.091 0 0 0-2.091 2.091v.418a1.255 1.255 0 0 0 1.255 1.254H37.54a1.255 1.255 0 0 0 1.255-1.254v-.418a2.091 2.091 0 0 0-2.095-2.091z" transform="translate(-24.577 -94.321)" style="fill:#f17c2d"/>
</svg>
