<svg width="53" height="53" xmlns="http://www.w3.org/2000/svg" fill="none">

 <g>
  <title>Layer 1</title>
  <g stroke="null" id="svg_4">
   <circle stroke="null" id="svg_1" fill="#F26522" r="26.33495" cy="26.44417" cx="26.54126"/>
   <path stroke="null" id="svg_2" fill="white" d="m24.01943,20.71941c1.14068,-0.51451 2.27579,0.7604 1.83427,2.05984l-4.12751,12.14673c-0.53708,1.58085 -2.58955,1.24512 -2.71506,-0.44408l-0.28186,-3.79825c-0.05688,-0.76627 -0.58689,-1.37845 -1.26107,-1.4564l-4.07334,-0.47162c-1.46513,-0.16975 -1.74789,-2.45532 -0.38028,-3.07231l11.00485,-4.96391z"/>
   <path stroke="null" id="svg_3" fill="white" d="m28.7066,31.34277c-1.13872,0.51842 -2.27835,-0.75258 -1.84119,-2.05352l4.08598,-12.16073c0.53182,-1.58266 2.58549,-1.25399 2.71671,0.4349l0.2948,3.7972c0.05944,0.76597 0.59156,1.37634 1.26603,1.45203l4.07484,0.45778c1.46573,0.16463 1.75632,2.4493 0.39081,3.07096l-10.98799,5.00138z"/>
  </g>
 </g>
</svg>