<svg width="18" height="16" viewBox="0 0 18 16" fill="none" xmlns="http://www.w3.org/2000/svg">
<path d="M14.7071 0.313286C16.2464 -0.198717 17.8795 1.01727 17.8547 2.65702L17.6989 12.9527C17.6746 14.5559 16.0747 15.5957 14.566 14.9887L11.0364 13.5689C10.8495 14.0367 10.5683 14.4729 10.1921 14.849C8.65413 16.387 6.11143 16.338 4.51281 14.7394C3.35827 13.5848 3.01203 11.9378 3.48814 10.5325L2.02522 9.94399C1.34128 9.66887 0.873351 9.01645 0.837924 8.28871L0.741435 6.30299C0.703196 5.51522 1.17893 4.81311 1.91735 4.56752L14.7071 0.313286ZM4.9046 11.1024C4.62523 11.9726 4.84551 12.9835 5.55712 13.6951C6.5563 14.6942 8.14544 14.7249 9.10669 13.7636C9.33219 13.5381 9.50316 13.278 9.61983 12.9991L4.9046 11.1024Z" fill="white"/>
</svg>
