<svg xmlns="http://www.w3.org/2000/svg" width="112.964" height="112.964" viewBox="0 0 112.964 112.964">
    <defs>
        <linearGradient id="linear-gradient" x1=".5" x2=".5" y2="1" gradientUnits="objectBoundingBox">
            <stop offset="0" stop-color="#f9de5b"/>
            <stop offset="0" stop-color="#f17c2d"/>
            <stop offset="0" stop-color="#fe9c5e"/>
            <stop offset=".012" stop-color="#fe9c5e"/>
            <stop offset="1" stop-color="#f17c2d"/>
        </linearGradient>
        <style>
            .cls-2{fill:url(#linear-gradient)}.cls-3{fill:#4d5a64}.cls-4{fill:none;stroke:#4d5a64;stroke-linecap:round;stroke-linejoin:round;stroke-width:2px}
        </style>
    </defs>
    <g id="Group_7278" data-name="Group 7278" transform="translate(-1225 -509)">
        <path id="Oval" fill="#f7f7fb" d="M56.482 0A56.482 56.482 0 1 1 0 56.482 56.482 56.482 0 0 1 56.482 0z" transform="translate(1225 509)"/>
        <g id="Group_3004" data-name="Group 3004" transform="translate(1254 547)">
            <g id="streamline-icon-car_140x140" data-name="streamline-icon-car@140x140">
                <path id="Path_2615" d="M61.8 39.172l-4.18-9.328a5.536 5.536 0 0 0-5.191-3.594H26.875a5.536 5.536 0 0 0-5.191 3.594L17.5 39.172" class="cls-2" data-name="Path 2615" transform="translate(-11.962 -26.25)"/>
                <path id="Path_2616" d="M8.75 96.063v3.771a3.692 3.692 0 1 0 7.384 0v-3.692" class="cls-3" data-name="Path 2616" transform="translate(-6.904 -66.606)"/>
                <path id="Path_2617" d="M121.134 96.063v3.771a3.692 3.692 0 1 1-7.384 0v-3.692" class="cls-3" data-name="Path 2617" transform="translate(-67.6 -66.606)"/>
                <path id="Path_2626" d="M9.3 56.875h45.532a4.923 4.923 0 0 1 4.923 4.925v9.23a2.461 2.461 0 0 1-2.461 2.461H6.836a2.461 2.461 0 0 1-2.461-2.461V61.8A4.923 4.923 0 0 1 9.3 56.875z" class="cls-2" data-name="Path 2626" transform="translate(-4.375 -43.953)"/>
                <g id="Group_2998" data-name="Group 2998" transform="translate(6.607 20.911)">
                    <path id="Path_2627" d="M48.125 56.875h3.907" class="cls-4" data-name="Path 2627" transform="translate(-48.125 -56.875)"/>
                    <path id="Path_2628" d="M48.125 56.875h3.907" class="cls-4" data-name="Path 2628" transform="translate(-10.008 -56.875)"/>
                </g>
            </g>
        </g>
    </g>
</svg>
