<svg xmlns="http://www.w3.org/2000/svg" width="112.964" height="112.964" viewBox="0 0 112.964 112.964">
    <defs>
        <linearGradient id="linear-gradient" x1=".5" x2=".5" y2="1" gradientUnits="objectBoundingBox">
            <stop offset="0" stop-color="#f9de5b"/>
            <stop offset="0" stop-color="#f17c2d"/>
            <stop offset="0" stop-color="#fe9c5e"/>
            <stop offset=".012" stop-color="#fe9c5e"/>
            <stop offset="1" stop-color="#f17c2d"/>
        </linearGradient>
        <style>
            .cls-2{fill:url(#linear-gradient)}.cls-3{fill:none;stroke:#4d5a64;stroke-linecap:round;stroke-linejoin:round;stroke-width:2px}
        </style>
    </defs>
    <g id="Group_7272" data-name="Group 7272" transform="translate(-1042 -321)">
        <path id="Oval" fill="#f7f7fb" d="M56.482 0A56.482 56.482 0 1 1 0 56.482 56.482 56.482 0 0 1 56.482 0z" transform="translate(1042 321)"/>
        <g id="streamline-icon-baby-care-bottle_140x140" data-name="streamline-icon-baby-care-bottle@140x140" transform="rotate(135 487.31 422.608)">
            <path id="Path_2585" d="M21.579.88l12.813 12.814a2.989 2.989 0 0 1 0 4.23L17.038 35.281 0 18.242 17.342.88a2.989 2.989 0 0 1 4.236 0z" class="cls-2" data-name="Path 2585" transform="translate(9.791)"/>
            <path id="Path_2586" d="M1.009 1.007a3.444 3.444 0 0 1 4.867 0l17.038 17.038a3.442 3.442 0 0 1-4.863 4.873L1.009 5.876a3.442 3.442 0 0 1 0-4.869z" class="cls-2" data-name="Path 2586" transform="translate(3.901 17.227)"/>
            <path id="Path_2587" d="M4.869 4.867L0 0" class="cls-3" data-name="Path 2587" transform="translate(14.651 13.367)"/>
            <path id="Path_2588" d="M4.867 4.867L0 0" class="cls-3" data-name="Path 2588" transform="translate(19.52 8.5)"/>
            <path id="Path_2589" d="M5.321 0L4.5 1.652a8.645 8.645 0 0 0-.8 5.246A8.609 8.609 0 0 1 1.26 14.2a4.3 4.3 0 1 0 6.085 6.085 8.609 8.609 0 0 1 7.3-2.435 8.645 8.645 0 0 0 5.246-.8l1.652-.825" class="cls-2" data-name="Path 2589" transform="translate(0 23.508)"/>
        </g>
    </g>
</svg>
