<svg xmlns="http://www.w3.org/2000/svg" width="24" height="24" viewBox="0 0 24 24">
    <defs>
        <clipPath id="a">
            <path data-name="Rectangle 2292" transform="translate(276 2049)" style="stroke:#2d3142;fill:#2d3142" d="M0 0h24v24H0z"/>
        </clipPath>
    </defs>
    <g data-name="Mask Group 89" transform="translate(-276 -2049)" style="clip-path:url(#a)">
        <path d="M4.25 11c4.069 0 4.25 1.38 4.25 4.25 0 1.438 0 2.461-.6 3.21-.695.863-1.96 1.04-3.646 1.04S1.3 19.323.6 18.46c-.6-.749-.6-1.771-.6-3.185l.75-.025H0C0 12.38.181 11 4.25 11zm11 0c4.069 0 4.25 1.38 4.25 4.25 0 1.438 0 2.461-.6 3.21-.695.863-1.96 1.04-3.646 1.04s-2.954-.177-3.654-1.04c-.6-.749-.6-1.771-.6-3.185l.75-.025H11c0-2.87.181-4.25 4.25-4.25zM4.456 12.5H4.25c-2.609 0-2.743.187-2.75 2.377v.853a3.392 3.392 0 0 0 .27 1.79c.265.328 1.052.48 2.479.48s2.214-.153 2.479-.481A4.513 4.513 0 0 0 7 15.274c0-2.5 0-2.762-2.544-2.774zm11 0h-.206c-2.609 0-2.743.187-2.75 2.377v.853a3.392 3.392 0 0 0 .27 1.79c.265.328 1.052.48 2.479.48s2.214-.153 2.479-.481A4.513 4.513 0 0 0 18 15.274c0-2.5 0-2.762-2.544-2.774zM4.25 0C8.319 0 8.5 1.38 8.5 4.25c0 1.438 0 2.461-.6 3.21-.7.863-1.964 1.04-3.65 1.04S1.3 8.323.6 7.46C0 6.711 0 5.689 0 4.275l.75-.025H0C0 1.38.181 0 4.25 0zm11 0c4.069 0 4.25 1.38 4.25 4.25 0 1.438 0 2.461-.6 3.21-.695.863-1.96 1.04-3.646 1.04S12.3 8.323 11.6 7.46c-.6-.749-.6-1.771-.6-3.185l.75-.025H11C11 1.38 11.181 0 15.25 0zM4.456 1.5H4.25c-2.609 0-2.743.187-2.75 2.377v.853a3.392 3.392 0 0 0 .27 1.79c.266.328 1.053.48 2.48.48s2.214-.153 2.479-.481A4.513 4.513 0 0 0 7 4.274c0-2.5 0-2.762-2.544-2.774zm11 0h-.206c-2.609 0-2.743.187-2.75 2.377v.853a3.392 3.392 0 0 0 .27 1.79c.265.328 1.052.48 2.479.48s2.214-.153 2.479-.481A4.513 4.513 0 0 0 18 4.274c0-2.5 0-2.762-2.544-2.774z" style="fill-rule:evenodd;fill:#2d3142" transform="translate(279 2051)" data-name="Iconly/Light-Outline/Category"/>
    </g>
</svg>
