<svg xmlns="http://www.w3.org/2000/svg" width="112.964" height="112.964" viewBox="0 0 112.964 112.964">
    <defs>
        <linearGradient id="linear-gradient" x1=".5" x2=".5" y2="1" gradientUnits="objectBoundingBox">
            <stop offset="0" stop-color="#f9de5b"/>
            <stop offset="0" stop-color="#f17c2d"/>
            <stop offset="0" stop-color="#fe9c5e"/>
            <stop offset=".012" stop-color="#fe9c5e"/>
            <stop offset="1" stop-color="#f17c2d"/>
        </linearGradient>
        <style>
            .cls-3{fill:url(#linear-gradient)}
        </style>
    </defs>
    <g id="Group_7275" data-name="Group 7275" transform="translate(-679.082 -509)">
        <g id="Group_7104" data-name="Group 7104" transform="translate(.164 -6.506)">
            <path id="Oval" fill="#f7f7fb" d="M56.482 0A56.482 56.482 0 1 1 0 56.482 56.482 56.482 0 0 1 56.482 0z" transform="translate(678.918 515.506)"/>
            <g id="Homeware_appliances_1_" transform="translate(706.363 554.68)">
                <g id="TV_1_">
                    <g id="Rounded_Rectangle_133_2_" transform="translate(5.491 35.691)">
                        <g id="Group_3417" data-name="Group 3417">
                            <path id="Path_2779" fill="#4d5a64" fill-rule="evenodd" d="M6.745 21A2.743 2.743 0 0 0 4 23.745v2.745a2.745 2.745 0 1 0 5.491 0v-2.745A2.745 2.745 0 0 0 6.745 21zm38.437 0a2.743 2.743 0 0 0-2.745 2.745v2.745a2.745 2.745 0 1 0 5.491 0v-2.745A2.745 2.745 0 0 0 45.182 21z" data-name="Path 2779" transform="translate(-4 -21)"/>
                        </g>
                    </g>
                    <g id="Rectangle_100_2_" transform="translate(3.049 2.761)">
                        <g id="Group_3419" data-name="Group 3419">
                            <path id="Rectangle_2178" d="M0 0H49V34H0z" class="cls-3" data-name="Rectangle 2178" transform="translate(-.412 -.441)"/>
                        </g>
                    </g>
                    <g id="Rectangle_98_2_">
                        <g id="Group_3420" data-name="Group 3420">
                            <path id="Path_2781" d="M15.727 38.2h27.455a2.748 2.748 0 0 0 2.745-2.745V18.982a2.745 2.745 0 0 0-2.745-2.745H15.727a2.743 2.743 0 0 0-2.745 2.745v16.473a2.746 2.746 0 0 0 2.745 2.745zm2.745-16.473h21.965v10.982H18.473zM54.164 8H4.745A2.743 2.743 0 0 0 2 10.745v32.946a2.746 2.746 0 0 0 2.745 2.745h49.419a2.748 2.748 0 0 0 2.745-2.745V10.745A2.745 2.745 0 0 0 54.164 8zm-2.746 32.946H7.491V13.491h43.927z" class="cls-3" data-name="Path 2781" transform="translate(-2 -8)"/>
                        </g>
                    </g>
                </g>
            </g>
            <g id="Shape_123_2_" transform="translate(723.444 540.339)">
                <g id="Group_3418" data-name="Group 3418">
                    <path id="Path_2780" fill="#4d5a64" d="M25.512 1.626a1.615 1.615 0 0 0-3.067-.72L22.431.9l-6.054 12.108h-1.242L9.081.9l-.016.006a1.61 1.61 0 1 0-2.88 1.437l-.015.01 6.5 13.008.015-.01a1.613 1.613 0 0 0 1.441.909h3.252a1.609 1.609 0 0 0 1.439-.909l.016.01 6.5-13.008-.016-.01a1.578 1.578 0 0 0 .195-.717z" data-name="Path 2780" transform="translate(-6)"/>
                </g>
            </g>
        </g>
    </g>
</svg>
