<svg xmlns="http://www.w3.org/2000/svg" width="40" height="40" viewBox="0 0 40 40" fill="none">
  <circle opacity="0.1" cx="19.5885" cy="19.8542" r="19.5885" fill="#F26522"/>
  <path d="M28.6281 20.2873C28.6281 25.016 25.1797 28.9362 20.6781 29.6476V23.0445H22.8669L23.2836 20.3126H20.6781V18.54C20.6781 17.7923 21.0423 17.0643 22.2085 17.0643H23.3927V14.7382C23.3927 14.7382 22.3175 14.5535 21.2902 14.5535C19.1446 14.5535 17.743 15.8618 17.743 18.2297V20.3118H15.358V23.0437H17.743V29.6468C13.2422 28.9347 9.79297 25.0152 9.79297 20.2873C9.79297 15.0548 14.0097 10.8125 19.2105 10.8125C24.4114 10.8125 28.6281 15.0541 28.6281 20.2873Z" fill="#F26522"/>
</svg>