<svg xmlns="http://www.w3.org/2000/svg" width="48" height="48" viewBox="0 0 48 48">
    <g id="Group_3349" data-name="Group 3349" transform="translate(-273 -721)">
        <path id="Path_2772" fill="#f7f7fb" d="M24 0A24 24 0 1 1 0 24 24 24 0 0 1 24 0z" data-name="Path 2772" transform="translate(273 721)"/>
        <g id="Icon" transform="translate(284.5 734)">
            <path id="Rectangle" fill="rgba(255,255,255,0)" d="M0 0H24V24H0z"/>
            <path id="Facebook" fill="#8789a2" d="M22 0H2a2.151 2.151 0 0 0-2 2v20a2.151 2.151 0 0 0 2 2h10.82v-9.294H9.692v-3.622h3.128V8.413c0-3.1 1.893-4.788 4.659-4.788a25.657 25.657 0 0 1 2.8.143v3.24h-1.923c-1.5 0-1.8.715-1.8 1.763v2.313h3.587l-.467 3.622h-3.12V24H22a2.151 2.151 0 0 0 2-2V2a2.151 2.151 0 0 0-2-2z"/>
        </g>
    </g>
</svg>
