<svg xmlns="http://www.w3.org/2000/svg" width="48" height="48" viewBox="0 0 48 48">
    <g data-name="Group 3349">
        <path data-name="Path 2772" d="M24 0A24 24 0 1 1 0 24 24 24 0 0 1 24 0z" style="fill:#f7f7fb"/>
        <path style="fill:transparent" d="M0 0h24v24H0z" transform="translate(11.5 13)"/>
        <path d="M22 0H2a2.151 2.151 0 0 0-2 2v20a2.151 2.151 0 0 0 2 2h10.82v-9.294H9.692v-3.622h3.128V8.413c0-3.1 1.893-4.788 4.659-4.788a25.657 25.657 0 0 1 2.8.143v3.24h-1.923c-1.5 0-1.8.715-1.8 1.763v2.313h3.587l-.467 3.622h-3.12V24H22a2.151 2.151 0 0 0 2-2V2a2.151 2.151 0 0 0-2-2z" style="fill:#cbcbd9" transform="translate(11.5 13)"/>
    </g>
</svg>
