<svg xmlns="http://www.w3.org/2000/svg" width="112.964" height="112.964" viewBox="0 0 112.964 112.964">
    <defs>
        <linearGradient id="linear-gradient" x1=".5" x2=".5" y2="1" gradientUnits="objectBoundingBox">
            <stop offset="0" stop-color="#f9de5b"/>
            <stop offset="0" stop-color="#f17c2d"/>
            <stop offset="0" stop-color="#fe9c5e"/>
            <stop offset=".012" stop-color="#fe9c5e"/>
            <stop offset="1" stop-color="#f17c2d"/>
        </linearGradient>
        <style>
            .cls-2{fill:url(#linear-gradient)}
        </style>
    </defs>
    <g id="Group_7274" data-name="Group 7274" transform="translate(-679.082 -321)">
        <g id="Group_2991" data-name="Group 2991" transform="translate(679.082 321)">
            <g id="Group_2993" data-name="Group 2993">
                <g id="Oval">
                    <g id="Oval-2" data-name="Oval">
                        <path id="Oval-3" fill="#f7f7fb" d="M56.482 0A56.482 56.482 0 1 1 0 56.482 56.482 56.482 0 0 1 56.482 0z" data-name="Oval"/>
                    </g>
                </g>
            </g>
        </g>
        <g id="Retail_and_delivery_1_" transform="translate(705.082 352)">
            <g id="T_shirt_1_">
                <g id="Rectangle_389_copy_2_1_" transform="translate(3.735 2.522)">
                    <g id="Group_3426" data-name="Group 3426">
                        <path id="Path_2787" d="M44.928 3.739A2.5 2.5 0 0 0 43.145 3H35.22c-1.125 4.343-2.515 7.566-7.208 7.566S21.928 7.343 20.8 3h-7.921a2.5 2.5 0 0 0-1.783.739s-6.919 9.433-9.615 13.443l7.746 5.133 1.395-2.787s2.257-4.442 2.257-1.395v27.744h30.266V18.133c0-3.047 2.257 1.395 2.257 1.395l1.398 2.787 7.746-5.133c-2.7-4.01-9.618-13.443-9.618-13.443z" class="cls-2" data-name="Path 2787" transform="translate(-1.481 -3)"/>
                    </g>
                </g>
                <g id="Rectangle_389_1_">
                    <g id="Group_3427" data-name="Group 3427">
                        <path id="Path_2788" d="M59.793 17.872c-.986-.986-9.044-13.655-9.044-13.655A7.543 7.543 0 0 0 45.4 2h-7.568a2.52 2.52 0 0 0-2.522 2.522 5.044 5.044 0 1 1-10.089 0A2.521 2.521 0 0 0 22.7 2h-7.567a7.543 7.543 0 0 0-5.35 2.217S1.725 16.886.739 17.872A2.552 2.552 0 0 0 0 19.655a2.7 2.7 0 0 0 1.407 2.232l10.076 5.07.013-.025a2.449 2.449 0 0 0 1.115.29v22.7a2.521 2.521 0 0 0 2.522 2.522H45.4a2.521 2.521 0 0 0 2.522-2.522v-22.7a2.449 2.449 0 0 0 1.115-.29l.013.025 10.076-5.07a2.7 2.7 0 0 0 1.407-2.232 2.552 2.552 0 0 0-.74-1.783zm-10.744 3.443l-1.395-2.787a2.176 2.176 0 0 0-2.254-1.395 2.52 2.52 0 0 0-2.522 2.522V47.4H17.655V19.655a2.521 2.521 0 0 0-2.522-2.522 2.184 2.184 0 0 0-2.257 1.395l-1.392 2.787L6.257 18.7C8.951 14.694 13.35 7.783 13.35 7.783a2.5 2.5 0 0 1 1.783-.739h5.4a10.04 10.04 0 0 0 19.467 0h5.4a2.5 2.5 0 0 1 1.783.739s4.4 6.911 7.092 10.921z" class="cls-2" data-name="Path 2788" transform="translate(0 -2)"/>
                    </g>
                </g>
            </g>
        </g>
        <g id="Retail_and_delivery_1_2" data-name="Retail_and_delivery_1_" transform="translate(705.082 352)">
            <g id="T_shirt_1_2" data-name="T_shirt_1_">
                <g id="Rectangle_389_copy_2_1_2" data-name="Rectangle_389_copy_2_1_" transform="translate(3.735 2.522)">
                    <g id="Group_3426-2" data-name="Group 3426">
                        <path id="Path_2787-2" d="M44.928 3.739A2.5 2.5 0 0 0 43.145 3H35.22c-1.125 4.343-2.515 7.566-7.208 7.566S21.928 7.343 20.8 3h-7.921a2.5 2.5 0 0 0-1.783.739s-6.919 9.433-9.615 13.443l7.746 5.133 1.395-2.787s2.257-4.442 2.257-1.395v27.744h30.266V18.133c0-3.047 2.257 1.395 2.257 1.395l1.398 2.787 7.746-5.133c-2.7-4.01-9.618-13.443-9.618-13.443z" class="cls-2" data-name="Path 2787" transform="translate(-1.481 -3)"/>
                    </g>
                </g>
                <g id="Rectangle_389_1_2" data-name="Rectangle_389_1_">
                    <g id="Group_3427-2" data-name="Group 3427">
                        <path id="Path_2788-2" d="M59.793 17.872c-.986-.986-9.044-13.655-9.044-13.655A7.543 7.543 0 0 0 45.4 2h-7.568a2.52 2.52 0 0 0-2.522 2.522 5.044 5.044 0 1 1-10.089 0A2.521 2.521 0 0 0 22.7 2h-7.567a7.543 7.543 0 0 0-5.35 2.217S1.725 16.886.739 17.872A2.552 2.552 0 0 0 0 19.655a2.7 2.7 0 0 0 1.407 2.232l10.076 5.07.013-.025a2.449 2.449 0 0 0 1.115.29v22.7a2.521 2.521 0 0 0 2.522 2.522H45.4a2.521 2.521 0 0 0 2.522-2.522v-22.7a2.449 2.449 0 0 0 1.115-.29l.013.025 10.076-5.07a2.7 2.7 0 0 0 1.407-2.232 2.552 2.552 0 0 0-.74-1.783zm-10.744 3.443l-1.395-2.787a2.176 2.176 0 0 0-2.254-1.395 2.52 2.52 0 0 0-2.522 2.522V47.4H17.655V19.655a2.521 2.521 0 0 0-2.522-2.522 2.184 2.184 0 0 0-2.257 1.395l-1.392 2.787L6.257 18.7C8.951 14.694 13.35 7.783 13.35 7.783a2.5 2.5 0 0 1 1.783-.739h5.4a10.04 10.04 0 0 0 19.467 0h5.4a2.5 2.5 0 0 1 1.783.739s4.4 6.911 7.092 10.921z" class="cls-2" data-name="Path 2788" transform="translate(0 -2)"/>
                    </g>
                </g>
            </g>
        </g>
        <g id="Rectangle_2184" fill="#4d5a64" stroke="#707070" data-name="Rectangle 2184" transform="translate(731.082 375)">
            <rect width="9" height="3" stroke="none" rx="1.5"/>
            <rect width="8" height="2" x=".5" y=".5" fill="none" rx="1"/>
        </g>
    </g>
</svg>
