<svg xmlns="http://www.w3.org/2000/svg" width="112.964" height="112.964" viewBox="0 0 112.964 112.964">
    <defs>
        <linearGradient id="linear-gradient" x1=".5" x2=".5" y2="1" gradientUnits="objectBoundingBox">
            <stop offset="0" stop-color="#f9de5b"/>
            <stop offset="0" stop-color="#f17c2d"/>
            <stop offset="0" stop-color="#fe9c5e"/>
            <stop offset=".012" stop-color="#fe9c5e"/>
            <stop offset="1" stop-color="#f17c2d"/>
        </linearGradient>
        <style>
            .cls-2{fill:url(#linear-gradient)}.cls-3{fill:none;stroke:#4d5a64;stroke-linecap:round;stroke-linejoin:round;stroke-width:2px}
        </style>
    </defs>
    <g id="Group_7273" data-name="Group 7273" transform="translate(-860 -321)">
        <path id="Oval" fill="#f7f7fb" d="M56.482 0A56.482 56.482 0 1 1 0 56.482 56.482 56.482 0 0 1 56.482 0z" transform="translate(860 321)"/>
        <g id="Group_2998" data-name="Group 2998" transform="translate(892 353)">
            <g id="streamline-icon-armchair_140x140" data-name="streamline-icon-armchair@140x140">
                <path id="Path_2581" d="M58.758 41.748l-1.45-19.656a17.717 17.717 0 1 0-35.434 0L23.3 41.748" class="cls-2" data-name="Path 2581" transform="translate(-15.427 -4.375)"/>
                <path id="Path_2582" d="M52.685 76.437a6.443 6.443 0 1 0-10.7 4.832H15.068a6.443 6.443 0 1 0-7.48.752v5.691a3.221 3.221 0 0 0 3.221 3.221h35.434a3.221 3.221 0 0 0 3.221-3.221v-5.691a6.443 6.443 0 0 0 3.221-5.584z" class="cls-2" data-name="Path 2582" transform="translate(-4.362 -45.835)"/>
                <path id="Path_2583" d="M21.875 126.875v3.225" class="cls-3" data-name="Path 2583" transform="translate(-15.427 -81.777)"/>
                <path id="Path_2584" d="M118.125 126.875v3.225" class="cls-3" data-name="Path 2584" transform="translate(-76.243 -81.777)"/>
            </g>
        </g>
    </g>
</svg>
