<svg xmlns="http://www.w3.org/2000/svg" id="Component_65_2" width="24" height="24" data-name="Component 65 – 2" viewBox="0 0 24 24">
    <path id="Path_43140" fill="none" d="M216 574h24v24h-24z" data-name="Path 43140" transform="translate(-216 -574)"/>
    <path id="Path_43141" fill="#9c9eb9" fill-rule="evenodd" d="M218.362 588.674a10.078 10.078 0 0 0 2.5 4.336 3 3 0 0 1 4.632 2.672 9.99 9.99 0 0 0 5.007 0 3 3 0 0 1 4.631-2.674 9.99 9.99 0 0 0 2.5-4.337 3 3 0 0 1 0-5.347 10.078 10.078 0 0 0-2.5-4.336 3 3 0 0 1-4.632-2.672 9.99 9.99 0 0 0-5.007 0 3 3 0 0 1-4.631 2.674 9.99 9.99 0 0 0-2.5 4.337 3 3 0 0 1 0 5.347zm8.888 5.292a5 5 0 0 0-5.773-3.334 8.127 8.127 0 0 1-.75-1.3 5 5 0 0 0 0-6.668 7.989 7.989 0 0 1 .748-1.3 5 5 0 0 0 5.776-3.335 7.986 7.986 0 0 1 1.5 0 5 5 0 0 0 5.773 3.334 8.127 8.127 0 0 1 .75 1.3 5 5 0 0 0 0 6.668 7.928 7.928 0 0 1-.748 1.3 5 5 0 0 0-5.776 3.335 7.986 7.986 0 0 1-1.5 0zM228 589a3 3 0 1 1 3-3 3 3 0 0 1-3 3zm1-3a1 1 0 1 1-1-1 1 1 0 0 1 1 1z" data-name="Path 43141" transform="translate(-216 -574)"/>
</svg>
