<svg xmlns="http://www.w3.org/2000/svg" width="48" height="48" viewBox="0 0 48 48">
    <g id="Group_3350" data-name="Group 3350" transform="translate(-164 -721)">
        <path id="Path_2769" fill="#f7f7fb" d="M24 0A24 24 0 1 1 0 24 24 24 0 0 1 24 0z" data-name="Path 2769" transform="translate(164 721)"/>
        <g id="Icon" transform="translate(176 734)">
            <path id="Rectangle" fill="rgba(255,255,255,0)" d="M0 0H24V24H0z"/>
            <path id="Google" fill="#8789a2" d="M23.769 9.752H12.246v4.683h6.673a5.63 5.63 0 0 1-2.452 3.707 7.083 7.083 0 0 1-2.7 1.043 8.152 8.152 0 0 1-2.922-.009 7.27 7.27 0 0 1-2.726-1.153 7.471 7.471 0 0 1-2.807-3.685 7.13 7.13 0 0 1 0-4.673A7.423 7.423 0 0 1 7.1 6.835a7.3 7.3 0 0 1 7.252-1.847 6.667 6.667 0 0 1 2.64 1.52q1.129-1.1 2.253-2.206c.394-.4.808-.774 1.19-1.18A11.892 11.892 0 0 0 16.491.729 12.622 12.622 0 0 0 8.242.658a12.225 12.225 0 0 0-6.937 5.955 11.773 11.773 0 0 0 0 10.775A12.143 12.143 0 0 0 4.631 21.4a12.285 12.285 0 0 0 4.45 2.2 13.346 13.346 0 0 0 6.265.066 11.139 11.139 0 0 0 5.013-2.566 10.863 10.863 0 0 0 3.1-4.982 13.827 13.827 0 0 0 .31-6.366z"/>
        </g>
    </g>
</svg>
