<svg xmlns="http://www.w3.org/2000/svg" xmlns:xlink="http://www.w3.org/1999/xlink" width="41.438" height="38.671" viewBox="0 0 41.438 38.671">
  <defs>
    <filter id="Icon" x="0" y="0" width="41.438" height="38.671" filterUnits="userSpaceOnUse">
      <feOffset dy="1" input="SourceAlpha"/>
      <feGaussianBlur stdDeviation="1" result="blur"/>
      <feFlood flood-color="#2d3142" flood-opacity="0.255"/>
      <feComposite operator="in" in2="blur"/>
      <feComposite in="SourceGraphic"/>
    </filter>
  </defs>
  <g id="Icon-2" data-name="Icon" transform="translate(4.007 3.024)">
    <g transform="matrix(1, 0, 0, 1, -4.01, -3.02)" filter="url(#Icon)">
      <path id="Icon-3" data-name="Icon" d="M16.968,30.646a4.518,4.518,0,0,1-3.416-1.533L2.925,17.052a10.035,10.035,0,0,1-1.6-12.008A9.6,9.6,0,0,1,7.587.184a9.143,9.143,0,0,1,7.672,1.96A9.982,9.982,0,0,1,16.92,3.883a9.483,9.483,0,0,1,1.373-1.537A8.681,8.681,0,0,1,25.179.155a9.573,9.573,0,0,1,8.127,8.261A10.552,10.552,0,0,1,30.693,17.1L20.366,29.077a4.521,4.521,0,0,1-3.4,1.569Z" transform="translate(4.01 3.02)" fill="#fff" stroke="#fff" stroke-miterlimit="10" stroke-width="2"/>
    </g>
  </g>
</svg>
