<svg xmlns="http://www.w3.org/2000/svg" width="24" height="24" viewBox="0 0 24 24">
    <defs>
        <clipPath id="clip-path">
            <path id="Rectangle_2299" data-name="Rectangle 2299" transform="translate(512 2055)" style="stroke:#2d3142;fill:#2d3142" d="M0 0h24v24H0z"/>
        </clipPath>
        <style>
            .cls-4{fill:#2d3142}
        </style>
    </defs>
    <g id="Mask_Group_96" data-name="Mask Group 96" transform="translate(-512 -2055)" style="clip-path:url(#clip-path)">
        <g id="info-circle" transform="translate(513.585 2056.585)">
            <path id="Path_44487" data-name="Path 44487" d="M10.415 19.529A9.113 9.113 0 1 0 1.3 10.415a9.113 9.113 0 0 0 9.113 9.113zm0 1.3A10.415 10.415 0 1 0 0 10.415a10.415 10.415 0 0 0 10.415 10.416z" style="fill-rule:evenodd;fill:#2d3142"/>
            <path id="Path_44488" data-name="Path 44488" class="cls-4" d="m12.914 9.882-2.981.373-.107.495.586.108c.383.091.458.229.375.611l-.961 4.515c-.253 1.167.137 1.717 1.052 1.717a2.7 2.7 0 0 0 1.908-.779l.115-.542a1.442 1.442 0 0 1-.893.32c-.358 0-.489-.251-.4-.694z" transform="translate(-1.288 -1.305)"/>
            <path id="Path_44489" data-name="Path 44489" class="cls-4" d="M13.1 6.552a1.3 1.3 0 1 1-1.3-1.3 1.3 1.3 0 0 1 1.3 1.3z" transform="translate(-1.387 -.693)"/>
        </g>
    </g>
</svg>
