<svg width="59" height="59" viewBox="0 0 59 59" fill="none" xmlns="http://www.w3.org/2000/svg">
<circle cx="29.8307" cy="29.1667" r="29.1667" fill="white"/>
<path fill-rule="evenodd" clip-rule="evenodd" d="M38.6725 22.8275C38.6725 23.6561 38.0008 24.3275 37.1725 24.3275C36.3441 24.3275 35.6725 23.6561 35.6725 22.8275C35.6725 21.999 36.3441 21.3275 37.1725 21.3275C38.001 21.3275 38.6725 21.999 38.6725 22.8275ZM30.5 33.6666C28.1988 33.6666 26.3334 31.8012 26.3334 29.5C26.3334 27.1988 28.1988 25.3334 30.5 25.3334C32.8012 25.3334 34.6666 27.1988 34.6666 29.5C34.6666 31.8012 32.8012 33.6666 30.5 33.6666ZM30.5 23.0811C26.9549 23.0811 24.0811 25.9549 24.0811 29.5C24.0811 33.0451 26.9549 35.9189 30.5 35.9189C34.0451 35.9189 36.9189 33.0451 36.9189 29.5C36.9189 25.9549 34.0451 23.0811 30.5 23.0811ZM30.5 19.2523C33.8377 19.2523 34.233 19.265 35.551 19.3252C36.7697 19.3809 37.4316 19.5844 37.8721 19.7557C38.4555 19.9824 38.8719 20.2533 39.3094 20.6908C39.7469 21.1281 40.0178 21.5445 40.2445 22.1281C40.4156 22.5686 40.6193 23.2305 40.675 24.4492C40.7352 25.7674 40.7479 26.1627 40.7479 29.5004C40.7479 32.8381 40.7352 33.2334 40.675 34.5514C40.6193 35.7701 40.4158 36.432 40.2445 36.8725C40.0178 37.4559 39.7469 37.8723 39.3094 38.3098C38.8721 38.7473 38.4557 39.0182 37.8721 39.2449C37.4316 39.416 36.7697 39.6197 35.551 39.6754C34.233 39.7355 33.8377 39.7482 30.5 39.7482C27.1621 39.7482 26.7668 39.7355 25.4488 39.6754C24.2301 39.6197 23.5682 39.4162 23.1277 39.2449C22.5443 39.0182 22.1279 38.7473 21.6904 38.3098C21.2531 37.8725 20.982 37.4561 20.7553 36.8725C20.5842 36.432 20.3805 35.7701 20.3248 34.5514C20.2646 33.2332 20.252 32.8379 20.252 29.5004C20.252 26.1627 20.2646 25.7674 20.3248 24.4492C20.3805 23.2305 20.584 22.5686 20.7553 22.1281C20.982 21.5447 21.2529 21.1283 21.6904 20.6908C22.1277 20.2533 22.5441 19.9824 23.1277 19.7557C23.5682 19.5846 24.2301 19.3809 25.4488 19.3252C26.767 19.265 27.1623 19.2523 30.5 19.2523ZM30.5 17C27.1053 17 26.6795 17.0145 25.3463 17.0752C24.0158 17.1359 23.107 17.3473 22.3121 17.6562C21.49 17.9756 20.793 18.4031 20.098 19.098C19.4031 19.793 18.9756 20.49 18.6562 21.3121C18.3473 22.1072 18.1359 23.0158 18.0752 24.3463C18.0145 25.6795 18 26.1053 18 29.5C18 32.8947 18.0145 33.3205 18.0752 34.6537C18.1359 35.9842 18.3473 36.8928 18.6562 37.6879C18.9756 38.51 19.4031 39.207 20.098 39.902C20.793 40.5969 21.49 41.0242 22.3121 41.3438C23.1072 41.6527 24.0158 41.8641 25.3463 41.9248C26.6795 41.9855 27.1053 42 30.5 42C33.8947 42 34.3205 41.9855 35.6537 41.9248C36.9842 41.8641 37.8928 41.6527 38.6879 41.3438C39.51 41.0242 40.207 40.5969 40.902 39.902C41.5969 39.207 42.0242 38.51 42.3438 37.6879C42.6527 36.8928 42.8641 35.9842 42.9248 34.6537C42.9855 33.3205 43 32.8947 43 29.5C43 26.1053 42.9855 25.6795 42.9248 24.3463C42.8641 23.0158 42.6527 22.1072 42.3438 21.3121C42.0242 20.49 41.5969 19.793 40.902 19.098C40.207 18.4031 39.51 17.9758 38.6879 17.6562C37.8928 17.3473 36.9842 17.1359 35.6537 17.0752C34.3205 17.0145 33.8947 17 30.5 17Z" fill="url(#paint0_radial_4331_24269)"/>
<defs>
<radialGradient id="paint0_radial_4331_24269" cx="0" cy="0" r="1" gradientUnits="userSpaceOnUse" gradientTransform="translate(21.7326 42.0868) scale(31.9437)">
<stop stop-color="#FFB140"/>
<stop offset="0.2559" stop-color="#FF5445"/>
<stop offset="0.599" stop-color="#FC2B82"/>
<stop offset="1" stop-color="#8E40B7"/>
</radialGradient>
</defs>
</svg>
