<svg width="40" height="40" viewBox="0 0 40 40" fill="none" xmlns="http://www.w3.org/2000/svg">
<circle opacity="0.1" cx="20.0104" cy="19.8542" r="19.5885" fill="#F26522"/>
<path d="M19.6369 22.7621C21.035 22.7621 22.1684 21.6287 22.1684 20.2307C22.1684 18.8326 21.035 17.6992 19.6369 17.6992C18.2388 17.6992 17.1055 18.8326 17.1055 20.2307C17.1055 21.6287 18.2388 22.7621 19.6369 22.7621Z" fill="#F26522"/>
<path d="M23.1102 12.3203H16.1488C14.9739 12.3203 13.8471 12.787 13.0163 13.6178C12.1855 14.4486 11.7188 15.5754 11.7188 16.7503V23.7118C11.7188 24.8867 12.1855 26.0135 13.0163 26.8443C13.8471 27.6751 14.9739 28.1418 16.1488 28.1418H23.1102C24.2852 28.1418 25.4119 27.6751 26.2427 26.8443C27.0735 26.0135 27.5403 24.8867 27.5403 23.7118V16.7503C27.5403 15.5754 27.0735 14.4486 26.2427 13.6178C25.4119 12.787 24.2852 12.3203 23.1102 12.3203ZM19.6295 24.0282C18.8785 24.0282 18.1444 23.8055 17.5199 23.3883C16.8955 22.9711 16.4088 22.378 16.1214 21.6842C15.834 20.9903 15.7588 20.2269 15.9053 19.4903C16.0518 18.7537 16.4135 18.0771 16.9445 17.5461C17.4755 17.015 18.1521 16.6534 18.8887 16.5069C19.6253 16.3604 20.3888 16.4355 21.0826 16.7229C21.7765 17.0103 22.3695 17.497 22.7867 18.1215C23.204 18.7459 23.4267 19.4801 23.4267 20.2311C23.4267 21.2381 23.0266 22.204 22.3145 22.9161C21.6024 23.6282 20.6366 24.0282 19.6295 24.0282ZM23.7431 17.0668C23.5553 17.0668 23.3718 17.0111 23.2157 16.9068C23.0596 16.8025 22.9379 16.6542 22.8661 16.4808C22.7942 16.3073 22.7754 16.1164 22.812 15.9323C22.8487 15.7481 22.9391 15.579 23.0719 15.4462C23.2046 15.3135 23.3738 15.2231 23.5579 15.1864C23.742 15.1498 23.9329 15.1686 24.1064 15.2404C24.2798 15.3123 24.4281 15.434 24.5324 15.5901C24.6367 15.7462 24.6924 15.9297 24.6924 16.1175C24.6924 16.3692 24.5924 16.6107 24.4143 16.7887C24.2363 16.9668 23.9949 17.0668 23.7431 17.0668Z" fill="#F26522"/>
</svg>
