<svg width="40" height="40" viewBox="0 0 40 40" fill="none" xmlns="http://www.w3.org/2000/svg">
<circle opacity="0.1" cx="19.8542" cy="19.8542" r="19.5885" fill="#F26522"/>
<path d="M21.183 19.9176V19.8945C21.1782 19.9023 21.1731 19.9101 21.168 19.9176H21.183Z" fill="white"/>
<path d="M26.2876 12.3203H13.4344C12.8192 12.3203 12.3203 12.8073 12.3203 13.4076V26.4112C12.3203 27.0111 12.8192 27.4982 13.4344 27.4982H26.2876C26.9037 27.4982 27.4026 27.0108 27.4026 26.4112V13.4076C27.4026 12.807 26.9034 12.3203 26.2876 12.3203ZM16.8919 25.0261H14.6139V18.1726H16.8919V25.0261ZM15.753 17.2364H15.7378C14.9736 17.2364 14.4793 16.71 14.4793 16.0524C14.4793 15.3801 14.9889 14.8684 15.768 14.8684C16.5473 14.8684 17.0267 15.3801 17.042 16.0524C17.042 16.71 16.547 17.2364 15.753 17.2364ZM25.1063 25.0261H22.8284V21.3587C22.8284 20.4378 22.4988 19.8091 21.6746 19.8091C21.0453 19.8091 20.6706 20.233 20.5055 20.6425C20.4454 20.7887 20.4307 20.9931 20.4307 21.1982V25.0258H18.1528C18.1528 25.0258 18.1827 18.8146 18.1528 18.1723H20.4307V19.1424C20.7335 18.6755 21.2748 18.0106 22.4841 18.0106C23.9828 18.0106 25.1067 18.9904 25.1067 21.0957L25.1063 25.0261Z" fill="#F26522"/>
</svg>
