<svg xmlns="http://www.w3.org/2000/svg" width="24" height="24" viewBox="0 0 24 24">
    <defs>
        <clipPath id="clip-path">
            <path id="Rectangle_2291" data-name="Rectangle 2291" transform="translate(550 2045)" style="stroke:#2d3142;fill:#2d3142" d="M0 0h24v24H0z"/>
        </clipPath>
        <style>
            .cls-3{stroke:#2d3142;fill:none;stroke-linecap:round;stroke-linejoin:round;stroke-width:1.714px}
        </style>
    </defs>
    <g id="Mask_Group_98" data-name="Mask Group 98" transform="translate(-550 -2045)" style="clip-path:url(#clip-path)">
        <g id="streamline-icon-money-safe-vault_24x24" data-name="streamline-icon-money-safe-vault@24x24" transform="translate(551.885 2046.885)">
            <g id="Group_7449" data-name="Group 7449" transform="translate(.857 .857)">
                <rect id="Rectangle_2290" data-name="Rectangle 2290" class="cls-3" width="18.515" height="16.379" rx="1.714"/>
                <g id="Group_7450" data-name="Group 7450" transform="translate(4.985 3.917)">
                    <circle id="Ellipse_386" data-name="Ellipse 386" class="cls-3" cx="2.492" cy="2.492" r="2.492" transform="translate(1.78 1.78)"/>
                    <path id="Line_63" data-name="Line 63" class="cls-3" transform="translate(4.273)" d="M0 0v1.78"/>
                    <path id="Line_64" data-name="Line 64" class="cls-3" transform="translate(4.273 6.765)" d="M0 0v1.78"/>
                    <path id="Line_65" data-name="Line 65" class="cls-3" transform="translate(6.765 4.273)" d="M1.78 0H0"/>
                    <path id="Line_66" data-name="Line 66" class="cls-3" transform="translate(0 4.273)" d="M1.78 0H0"/>
                    <path id="Line_67" data-name="Line 67" class="cls-3" transform="translate(6.039 1.253)" d="M1.253 0 0 1.253"/>
                    <path id="Line_68" data-name="Line 68" class="cls-3" transform="translate(1.253 6.039)" d="M1.253 0 0 1.253"/>
                    <path id="Line_69" data-name="Line 69" class="cls-3" transform="translate(6.039 6.039)" d="M1.253 1.253 0 0"/>
                    <path id="Line_70" data-name="Line 70" class="cls-3" transform="translate(1.253 1.253)" d="M1.253 1.253 0 0"/>
                </g>
                <path id="Line_72" data-name="Line 72" class="cls-3" transform="translate(2.136 16.379)" d="M0 0v2.136"/>
                <path id="Line_73" data-name="Line 73" class="cls-3" transform="translate(15.667 16.379)" d="M0 0v2.136"/>
            </g>
        </g>
    </g>
</svg>
