<svg xmlns="http://www.w3.org/2000/svg" width="24" height="24" viewBox="0 0 24 24">
    <defs>
        <clipPath id="a">
            <path data-name="Rectangle 2300" transform="translate(528 2046)" style="stroke:#2d3142;fill:#2d3142" d="M0 0h24v24H0z"/>
        </clipPath>
    </defs>
    <g data-name="Mask Group 97" transform="translate(-528 -2046)" style="clip-path:url(#a)">
        <path data-name="Path 44486" d="M3.75 3.125a3.125 3.125 0 0 1 6.25 0 3.125 3.125 0 1 1 6.25 0v.007a3.709 3.709 0 0 1-.048.618h2.548A1.25 1.25 0 0 1 20 5v2.5a1.25 1.25 0 0 1-1.25 1.25v9.375A1.875 1.875 0 0 1 16.875 20H3.125a1.875 1.875 0 0 1-1.875-1.875V8.75A1.25 1.25 0 0 1 0 7.5V5a1.25 1.25 0 0 1 1.25-1.25H3.8a3.71 3.71 0 0 1-.048-.617zm1.335.625H8.75v-.625a1.875 1.875 0 1 0-3.75 0 2.155 2.155 0 0 0 .057.537.652.652 0 0 0 .029.088zm6.165 0h3.665a.7.7 0 0 0 .029-.088A2.155 2.155 0 0 0 15 3.125a1.875 1.875 0 1 0-3.75 0v.625zM1.25 5v2.5h7.5V5zm10 0v2.5h7.5V5zm6.25 3.75h-6.25v10h5.625a.625.625 0 0 0 .625-.625zm-8.75 10v-10H2.5v9.375a.625.625 0 0 0 .625.625z" style="fill-rule:evenodd;fill:#2d3142" transform="translate(530 2048)"/>
    </g>
</svg>
