<svg xmlns="http://www.w3.org/2000/svg" width="24" height="24" viewBox="0 0 24 24">
    <defs>
        <clipPath id="a">
            <path data-name="Rectangle 2296" transform="translate(399 2046)" style="stroke:#2d3142;fill:#2d3142" d="M0 0h24v24H0z"/>
        </clipPath>
    </defs>
    <g data-name="Mask Group 93" transform="translate(-399 -2046)" style="clip-path:url(#a)">
        <path data-name="Path 44485" d="M7.5 17.25a.75.75 0 0 1 .75-.75h13.5a.75.75 0 0 1 0 1.5H8.25a.75.75 0 0 1-.75-.75zm0-6a.75.75 0 0 1 .75-.75h13.5a.75.75 0 0 1 0 1.5H8.25a.75.75 0 0 1-.75-.75zm0-6a.75.75 0 0 1 .75-.75h13.5a.75.75 0 0 1 0 1.5H8.25a.75.75 0 0 1-.75-.75zM5.781 3.219a.75.75 0 0 1 0 1.062l-2.25 2.25a.75.75 0 0 1-1.062 0l-.75-.75a.751.751 0 0 1 1.062-1.062L3 4.94l1.719-1.72a.75.75 0 0 1 1.062 0zm0 6a.75.75 0 0 1 0 1.062l-2.25 2.25a.75.75 0 0 1-1.062 0l-.75-.75a.751.751 0 0 1 1.062-1.062L3 10.94l1.719-1.72a.75.75 0 0 1 1.062 0zm0 6a.75.75 0 0 1 0 1.062l-2.25 2.25a.75.75 0 0 1-1.062 0l-.75-.75a.751.751 0 0 1 1.062-1.062l.219.22 1.719-1.72a.75.75 0 0 1 1.062 0z" style="fill-rule:evenodd;fill:#2d3142" transform="translate(398.501 2047)"/>
    </g>
</svg>
