<svg xmlns="http://www.w3.org/2000/svg" id="Component_39_2" width="24" height="24" data-name="Component 39 – 2" viewBox="0 0 24 24">
    <path id="Path_42129" fill="none" d="M0 520h24v24H0z" data-name="Path 42129" transform="translate(0 -520)"/>
    <path id="Path_42130" fill="#cdcedc" fill-rule="evenodd" d="M5.636 537.364L12 543.728l6.364-6.364a9 9 0 1 0-12.728 0zm11.314-1.414L12 540.9l-4.95-4.95a7 7 0 1 1 9.9 0zM8 531a4 4 0 1 0 4-4 4 4 0 0 0-4 4zm4 2a2 2 0 1 0-2-2 2 2 0 0 0 2 2z" data-name="Path 42130" transform="translate(0 -520)"/>
</svg>
