<svg xmlns="http://www.w3.org/2000/svg" id="Component_64_2" width="24" height="24" data-name="Component 64 – 2" viewBox="0 0 24 24">
    <path id="Path_41420" fill="none" d="M0 176h24v24H0z" data-name="Path 41420" transform="translate(0 -176)"/>
    <path id="Path_41421" fill="#9c9eb9" fill-rule="evenodd" d="M3 181a1.5 1.5 0 1 0 1.5-1.5A1.5 1.5 0 0 0 3 181zm18-1H8v2h13zm-16.5 9.5A1.5 1.5 0 1 1 6 188a1.5 1.5 0 0 1-1.5 1.5zM8 187h13v2H8zm-5 7.9a1.5 1.5 0 1 0 1.5-1.5 1.5 1.5 0 0 0-1.5 1.5zm18-.9H8v2h13z" data-name="Path 41421" transform="translate(0 -176)"/>
</svg>
