<svg width="59" height="59" viewBox="0 0 59 59" fill="none" xmlns="http://www.w3.org/2000/svg">
<circle cx="29.1667" cy="29.1667" r="29.1667" fill="white"/>
<path d="M28.7301 16.4648C21.9571 16.4648 16.4609 21.7971 16.4609 28.3744C16.4609 31.9215 18.0672 35.0972 20.6017 37.2796L20.6895 40.0766C20.6945 40.2388 20.7395 40.3972 20.8203 40.5379C20.9011 40.6786 21.0153 40.7973 21.1528 40.8834C21.2903 40.9695 21.4469 41.0204 21.6087 41.0317C21.7706 41.0429 21.9327 41.0142 22.0808 40.9479L24.9046 39.6861C26.141 40.0834 27.4314 40.2867 28.7301 40.289C35.5031 40.289 40.9992 34.9568 40.9992 28.3786C40.9992 21.8005 35.5031 16.4648 28.7301 16.4648Z" fill="url(#paint0_radial_4331_24264)"/>
<path d="M21.3982 31.7152C21.3982 31.7152 20.9065 32.2771 21.3982 32.6517C21.3982 32.6517 21.8079 33.0497 22.2996 32.568L25.8868 29.8839C25.8868 29.8839 26.4838 29.2518 27.1502 29.8839L30.0467 32.0429C30.0467 32.0429 30.9866 32.5446 31.8813 32.0429C32.17 31.8674 32.4136 31.6269 32.5929 31.3405L36.2494 25.5124C36.2494 25.5124 36.3933 25.0944 36.0504 24.8276C36.0504 24.8276 35.7879 24.5299 35.3397 24.8276L31.4691 27.7601C31.4691 27.7601 30.9423 28.1982 30.4774 27.7601L27.4487 25.5024C27.4487 25.5024 26.5014 24.8937 25.4946 25.5024C25.2708 25.6811 25.0771 25.8945 24.921 26.1345L21.3982 31.7152Z" fill="#FEFEFE"/>
<defs>
<radialGradient id="paint0_radial_4331_24264" cx="0" cy="0" r="1" gradientUnits="userSpaceOnUse" gradientTransform="translate(23.0407 37.4264) rotate(-53.47) scale(20.1484 20.3499)">
<stop stop-color="#3A77F6"/>
<stop offset="0.55" stop-color="#814EF6"/>
<stop offset="0.66" stop-color="#9145F6"/>
<stop offset="1" stop-color="#EC6787"/>
</radialGradient>
</defs>
</svg>
