<svg xmlns="http://www.w3.org/2000/svg" xmlns:xlink="http://www.w3.org/1999/xlink" width="41.435" height="38.674" viewBox="0 0 41.435 38.674">
  <defs>
    <filter id="Icon" x="0" y="0" width="41.435" height="38.674" filterUnits="userSpaceOnUse">
      <feOffset dy="1" input="SourceAlpha"/>
      <feGaussianBlur stdDeviation="1" result="blur"/>
      <feFlood flood-color="#2d3142" flood-opacity="0.255"/>
      <feComposite operator="in" in2="blur"/>
      <feComposite in="SourceGraphic"/>
    </filter>
  </defs>
  <g id="Icon-2" data-name="Icon" transform="translate(4.007 3.024)">
    <g transform="matrix(1, 0, 0, 1, -4.01, -3.02)" filter="url(#Icon)">
      <path id="Icon-3" data-name="Icon" d="M16.967,30.65a4.517,4.517,0,0,1-3.416-1.533L2.924,17.054a10.038,10.038,0,0,1-1.6-12.01A9.6,9.6,0,0,1,7.586.185a9.141,9.141,0,0,1,7.672,1.96,9.983,9.983,0,0,1,1.661,1.74,9.484,9.484,0,0,1,1.373-1.538A8.679,8.679,0,0,1,25.177.155,9.574,9.574,0,0,1,33.3,8.417a10.555,10.555,0,0,1-2.613,8.689L20.364,29.081a4.52,4.52,0,0,1-3.4,1.569Z" transform="translate(4.01 3.02)" fill="#ff5353" stroke="#ff5353" stroke-miterlimit="10" stroke-width="2"/>
    </g>
  </g>
</svg>
