<?xml version="1.0"?>
<svg width="40" height="40" xmlns="http://www.w3.org/2000/svg" xmlns:svg="http://www.w3.org/2000/svg" xmlns:xlink="http://www.w3.org/1999/xlink">
 <g class="layer">
  <title>Layer 1</title>
  <circle cx="19.59" cy="19.85" fill="#F26522" id="svg_1" opacity="0.1" r="19.59"/>
  <use fill="#f26522" id="svg_7" transform="matrix(0.0238309 0 0 0.0238309 -7.25516 58.9959)" x="720.42" xlink:href="#svg_6" y="-2038.13"/>
 </g>
 <defs>
  <symbol height="800px" id="svg_6" version="1.1" viewBox="0 0 32 32" width="800px" xmlns="http://www.w3.org/2000/svg">
   <g id="svg_5" stroke-width="0"/>
   <g id="svg_4" stroke-linecap="round" stroke-linejoin="round"/>
   <g id="svg_3">
    <title>tiktok</title>
    <path d="m16.66,1.03c1.63,-0.03 3.26,-0.01 4.88,-0.03c0.06,2.04 0.88,3.86 2.19,5.22l0,0c1.41,1.27 3.25,2.09 5.27,2.23l0.03,0l0,5.04c-1.91,-0.05 -3.71,-0.49 -5.33,-1.25l0.08,0.04c-0.78,-0.38 -1.45,-0.77 -2.08,-1.2l0.05,0.03c-0.01,3.65 0.02,7.3 -0.02,10.94c-0.1,1.85 -0.72,3.54 -1.71,4.95l0.02,-0.03c-1.65,2.37 -4.33,3.92 -7.37,4.01l-0.01,0c-0.13,0.01 -0.27,0.01 -0.42,0.01c-1.73,0 -3.34,-0.48 -4.72,-1.32l0.04,0.02c-2.51,-1.5 -4.24,-4.09 -4.56,-7.09l0,-0.04c-0.03,-0.63 -0.04,-1.25 -0.02,-1.86c0.49,-4.78 4.5,-8.48 9.36,-8.48c0.55,0 1.09,0.05 1.61,0.14l-0.06,-0.01c0.03,1.85 -0.05,3.7 -0.05,5.55c-0.42,-0.16 -0.91,-0.24 -1.42,-0.24c-1.87,0 -3.45,1.19 -4.04,2.86l-0.01,0.03c-0.13,0.42 -0.21,0.91 -0.21,1.42c0,0.21 0.01,0.41 0.04,0.61l-0.01,-0.02c0.34,2.04 2.09,3.59 4.2,3.59c0.07,0 0.13,0 0.19,-0.01l-0.01,0c1.46,-0.04 2.73,-0.83 3.45,-1.99l0.01,-0.02c0.26,-0.37 0.45,-0.82 0.51,-1.31l0,-0.01c0.12,-2.24 0.07,-4.46 0.09,-6.7c0.01,-5.04 -0.02,-10.06 0.02,-15.08l0.01,0z"/>
   </g>
  </symbol>
 </defs>
</svg>