<svg width="59" height="59" viewBox="0 0 59 59" fill="none" xmlns="http://www.w3.org/2000/svg">
<circle cx="29.1667" cy="29.1667" r="29.1667" fill="white"/>
<path d="M29.1555 27.7313L25.0901 22.043H22.9219L27.9578 29.0889L28.5917 29.9752L32.9021 36.0114H35.0704L29.7867 28.6177L29.1555 27.7313Z" fill="black"/>
<path d="M38.1598 18H19.8402C18.8239 18 18 18.8239 18 19.8402V38.1598C18 39.1761 18.8239 40 19.8402 40H38.1598C39.1761 40 40 39.1761 40 38.1598V19.8402C40 18.8239 39.1761 18 38.1598 18ZM32.2354 37L27.8728 30.787L22.4114 37H21L27.2469 29.8953L21 21H25.7646L29.8948 26.882L35.0696 21H36.481L30.524 27.7756L37 37H32.2354Z" fill="black"/>
</svg>
