<svg width="59" height="59" viewBox="0 0 59 59" fill="none" xmlns="http://www.w3.org/2000/svg">
<circle cx="29.5026" cy="29.1667" r="29.1667" fill="white"/>
<path d="M29.5026 17C22.5979 17 17 22.5979 17 29.5026C17 32.0288 17.7512 34.3853 19.0426 36.3507L17.4322 41.8045L23.0969 40.2352C24.9697 41.3569 27.1616 42 29.5026 42C36.4073 42 42.0051 36.4021 42.0051 29.4974C42.0051 22.5979 36.4073 17 29.5026 17Z" fill="#25D366"/>
<path d="M36.372 32.9361C36.3566 32.7715 36.2588 32.6274 36.1096 32.5605C35.1012 32.0975 34.0876 31.6344 33.0791 31.1713C32.9659 31.1199 32.827 31.1456 32.7447 31.2434L31.3761 32.7869C31.2681 32.9104 31.0983 32.9515 30.9491 32.8898C30.239 32.5965 29.2821 32.1026 28.3148 31.2691C27.1571 30.2761 26.478 29.2111 26.0972 28.5165C26.2876 28.3878 26.8073 28.002 27.0388 27.2868C27.0388 27.2817 27.0439 27.2765 27.0439 27.2765C27.188 26.834 27.1571 26.3555 26.9976 25.9182C26.7249 25.1927 26.1796 23.7881 25.9686 23.572C25.9326 23.536 25.8914 23.5 25.8914 23.5C25.7371 23.3611 25.5364 23.2839 25.3255 23.2736C25.2535 23.2685 25.1763 23.2685 25.094 23.2685C24.8573 23.2633 24.6463 23.2633 24.492 23.2839C24.0546 23.3457 23.7357 23.6389 23.535 23.8859C23.2932 24.1792 23.005 24.6165 22.8147 25.1927C22.7992 25.2442 22.7838 25.2905 22.7684 25.342C22.5574 26.0726 22.5986 26.8546 22.8507 27.5749C23.0874 28.2489 23.4321 29.0516 23.9517 29.9005C24.8316 31.3463 25.7885 32.2415 26.4368 32.8332C27.1674 33.5072 28.073 34.3356 29.5084 35.025C30.8359 35.663 32.0398 35.8997 32.8476 35.9974C33.1769 36.0283 33.784 36.0335 34.4786 35.7711C34.7976 35.6476 35.0651 35.4984 35.2812 35.3389C35.8523 34.9324 36.2537 34.3201 36.3566 33.6307C36.3566 33.6256 36.3566 33.6204 36.3566 33.6153C36.3926 33.3529 36.3874 33.1265 36.372 32.9361Z" fill="white"/>
</svg>
