<svg width="40" height="40" viewBox="0 0 40 40" fill="none" xmlns="http://www.w3.org/2000/svg">
<circle opacity="0.1" cx="20.2721" cy="19.8542" r="19.5885" fill="#F26522"/>
<path d="M28.934 15.7827C28.726 15.0135 28.1135 14.4071 27.3353 14.2013C25.9256 13.8281 20.2713 13.8281 20.2713 13.8281C20.2713 13.8281 14.617 13.8281 13.2067 14.2013C12.4291 14.4071 11.8166 15.0127 11.6087 15.7827C11.2305 17.1775 11.2305 20.0872 11.2305 20.0872C11.2305 20.0872 11.2305 22.9968 11.6087 24.3917C11.8166 25.1609 12.4291 25.7673 13.2074 25.9731C14.617 26.3462 20.2713 26.3462 20.2713 26.3462C20.2713 26.3462 25.9256 26.3462 27.336 25.9731C28.1135 25.7673 28.726 25.1617 28.9347 24.3917C29.3122 22.9968 29.3122 20.0872 29.3122 20.0872C29.3122 20.0872 29.3122 17.1775 28.934 15.7827ZM18.4225 22.7296V17.4448L23.1478 20.0872L18.4225 22.7296Z" fill="#F26522"/>
</svg>
