<svg width="53" height="53" viewBox="0 0 53 53" fill="none" xmlns="http://www.w3.org/2000/svg">
<circle cx="26.25" cy="26.25" r="17.5" fill="#F26522"/>
<path d="M24.5742 22.4458C25.3322 22.1039 26.0865 22.9511 25.7931 23.8146L23.0503 31.8863C22.6934 32.9368 21.3295 32.7137 21.2461 31.5912L21.0588 29.0672C21.021 28.558 20.6688 28.1512 20.2208 28.0994L17.514 27.786C16.5404 27.6732 16.3525 26.1544 17.2613 25.7444L24.5742 22.4458Z" fill="white"/>
<path d="M27.6889 29.5052C26.9322 29.8497 26.1749 29.0051 26.4654 28.1406L29.1806 20.0596C29.534 19.0079 30.8987 19.2263 30.9859 20.3486L31.1818 22.8719C31.2213 23.3809 31.5749 23.7865 32.0231 23.8368L34.7309 24.141C35.7049 24.2504 35.898 25.7686 34.9906 26.1817L27.6889 29.5052Z" fill="white"/>
</svg>
